G04 #@! TF.GenerationSoftware,KiCad,Pcbnew,9.0.0*
G04 #@! TF.CreationDate,2025-03-07T02:47:21-06:00*
G04 #@! TF.ProjectId,ATWILC1000_Breakout,41545749-4c43-4313-9030-305f42726561,rev?*
G04 #@! TF.SameCoordinates,Original*
G04 #@! TF.FileFunction,Copper,L2,Bot*
G04 #@! TF.FilePolarity,Positive*
%FSLAX46Y46*%
G04 Gerber Fmt 4.6, Leading zero omitted, Abs format (unit mm)*
G04 Created by KiCad (PCBNEW 9.0.0) date 2025-03-07 02:47:21*
%MOMM*%
%LPD*%
G01*
G04 APERTURE LIST*
G04 #@! TA.AperFunction,ComponentPad*
%ADD10R,1.700000X1.700000*%
G04 #@! TD*
G04 #@! TA.AperFunction,ComponentPad*
%ADD11O,1.700000X1.700000*%
G04 #@! TD*
G04 #@! TA.AperFunction,ComponentPad*
%ADD12R,1.500000X1.500000*%
G04 #@! TD*
G04 #@! TA.AperFunction,ViaPad*
%ADD13C,1.000000*%
G04 #@! TD*
G04 #@! TA.AperFunction,ViaPad*
%ADD14C,0.500000*%
G04 #@! TD*
G04 #@! TA.AperFunction,Conductor*
%ADD15C,0.200000*%
G04 #@! TD*
G04 APERTURE END LIST*
D10*
X130500000Y-96000000D03*
D11*
X130500000Y-98540000D03*
X130500000Y-101080000D03*
D10*
X161500000Y-92420000D03*
D11*
X161500000Y-94960000D03*
X161500000Y-97500000D03*
X161500000Y-100040000D03*
D10*
X132500000Y-115620000D03*
D11*
X129960000Y-115620000D03*
X132500000Y-113080000D03*
X129960000Y-113080000D03*
X132500000Y-110540000D03*
X129960000Y-110540000D03*
X132500000Y-108000000D03*
X129960000Y-108000000D03*
X132500000Y-105460000D03*
X129960000Y-105460000D03*
D12*
X130000000Y-92000000D03*
D10*
X147500000Y-111460000D03*
D11*
X147500000Y-114000000D03*
X147500000Y-116540000D03*
X147500000Y-119080000D03*
D12*
X142500000Y-121500000D03*
D10*
X142500000Y-114960000D03*
D11*
X142500000Y-117500000D03*
D12*
X134500000Y-92000000D03*
D10*
X161500000Y-117660000D03*
D11*
X161500000Y-115120000D03*
X161500000Y-112580000D03*
X161500000Y-110040000D03*
X161500000Y-107500000D03*
D12*
X142500000Y-111000000D03*
X151500000Y-117500000D03*
D10*
X137500000Y-113000000D03*
D11*
X137500000Y-115540000D03*
X137500000Y-118080000D03*
X137500000Y-120620000D03*
D12*
X158000000Y-120660000D03*
D13*
X145500000Y-99500000D03*
D14*
X153000000Y-107085678D03*
D13*
X147500000Y-99500000D03*
X146480000Y-100730000D03*
D14*
X155976431Y-92147304D03*
D13*
X145500000Y-102000000D03*
X147500000Y-102000000D03*
D14*
X141292000Y-96208000D03*
D13*
X143000000Y-108500000D03*
X145500000Y-108500000D03*
D15*
X136512906Y-108500016D02*
X143000000Y-108500000D01*
X136512906Y-108500016D02*
X133321905Y-111691014D01*
X131349005Y-111691013D02*
X133321905Y-111691014D01*
X131349005Y-111691013D02*
X129960000Y-113080000D01*
X144499999Y-109500000D02*
X145500000Y-108500000D01*
X144499999Y-109500000D02*
X136080007Y-109500016D01*
X136080007Y-109500016D02*
X132500000Y-113080000D01*
G04 #@! TA.AperFunction,Conductor*
G36*
X142727687Y-108092426D02*
G01*
X142996630Y-108493484D01*
X142998392Y-108502263D01*
X142996630Y-108506516D01*
X142727687Y-108907573D01*
X142720233Y-108912536D01*
X142713230Y-108911754D01*
X142016567Y-108603083D01*
X142010392Y-108596599D01*
X142009607Y-108592386D01*
X142009607Y-108407613D01*
X142013034Y-108399340D01*
X142016566Y-108396916D01*
X142713232Y-108088244D01*
X142722183Y-108088027D01*
X142727687Y-108092426D01*
G37*
G04 #@! TD.AperFunction*
G04 #@! TA.AperFunction,Conductor*
G36*
X133627750Y-111826685D02*
G01*
X133756133Y-111955068D01*
X133759560Y-111963341D01*
X133758962Y-111967033D01*
X133336922Y-113236039D01*
X133331060Y-113242808D01*
X133323549Y-113243824D01*
X132506978Y-113082227D01*
X132499527Y-113077260D01*
X132497772Y-113073021D01*
X132336175Y-112256450D01*
X132337930Y-112247669D01*
X132343957Y-112243078D01*
X133098576Y-111992111D01*
X133102268Y-111991513D01*
X133280014Y-111991513D01*
X133280018Y-111991514D01*
X133282343Y-111991514D01*
X133361469Y-111991514D01*
X133361469Y-111991513D01*
X133399680Y-111981274D01*
X133437892Y-111971036D01*
X133437896Y-111971034D01*
X133465550Y-111955068D01*
X133506416Y-111931474D01*
X133562365Y-111875525D01*
X133562366Y-111875524D01*
X133611205Y-111826684D01*
X133619477Y-111823258D01*
X133627750Y-111826685D01*
G37*
G04 #@! TD.AperFunction*
G04 #@! TA.AperFunction,Conductor*
G36*
X163892539Y-90394685D02*
G01*
X163938294Y-90447489D01*
X163949500Y-90499000D01*
X163949500Y-123450500D01*
X163929815Y-123517539D01*
X163877011Y-123563294D01*
X163825500Y-123574500D01*
X127749500Y-123574500D01*
X127682461Y-123554815D01*
X127636706Y-123502011D01*
X127625500Y-123450500D01*
X127625500Y-120702135D01*
X141249500Y-120702135D01*
X141249500Y-122297870D01*
X141249501Y-122297876D01*
X141255908Y-122357483D01*
X141306202Y-122492328D01*
X141306206Y-122492335D01*
X141392452Y-122607544D01*
X141392455Y-122607547D01*
X141507664Y-122693793D01*
X141507671Y-122693797D01*
X141642517Y-122744091D01*
X141642516Y-122744091D01*
X141649444Y-122744835D01*
X141702127Y-122750500D01*
X143297872Y-122750499D01*
X143357483Y-122744091D01*
X143492331Y-122693796D01*
X143607546Y-122607546D01*
X143693796Y-122492331D01*
X143744091Y-122357483D01*
X143750500Y-122297873D01*
X143750499Y-120702128D01*
X143744091Y-120642517D01*
X143693796Y-120507669D01*
X143693795Y-120507668D01*
X143693793Y-120507664D01*
X143607547Y-120392455D01*
X143607544Y-120392452D01*
X143492335Y-120306206D01*
X143492328Y-120306202D01*
X143357482Y-120255908D01*
X143357483Y-120255908D01*
X143297883Y-120249501D01*
X143297881Y-120249500D01*
X143297873Y-120249500D01*
X143297864Y-120249500D01*
X141702129Y-120249500D01*
X141702123Y-120249501D01*
X141642516Y-120255908D01*
X141507671Y-120306202D01*
X141507664Y-120306206D01*
X141392455Y-120392452D01*
X141392452Y-120392455D01*
X141306206Y-120507664D01*
X141306202Y-120507671D01*
X141255908Y-120642517D01*
X141249501Y-120702116D01*
X141249501Y-120702123D01*
X141249500Y-120702135D01*
X127625500Y-120702135D01*
X127625500Y-105353713D01*
X128609500Y-105353713D01*
X128609500Y-105566286D01*
X128642753Y-105776239D01*
X128708444Y-105978414D01*
X128804951Y-106167820D01*
X128929890Y-106339786D01*
X129080213Y-106490109D01*
X129252182Y-106615050D01*
X129260946Y-106619516D01*
X129311742Y-106667491D01*
X129328536Y-106735312D01*
X129305998Y-106801447D01*
X129260946Y-106840484D01*
X129252182Y-106844949D01*
X129080213Y-106969890D01*
X128929890Y-107120213D01*
X128804951Y-107292179D01*
X128708444Y-107481585D01*
X128642753Y-107683760D01*
X128636560Y-107722861D01*
X128609500Y-107893713D01*
X128609500Y-108106287D01*
X128642754Y-108316243D01*
X128670442Y-108401459D01*
X128708444Y-108518414D01*
X128804951Y-108707820D01*
X128929890Y-108879786D01*
X129080213Y-109030109D01*
X129252182Y-109155050D01*
X129260946Y-109159516D01*
X129311742Y-109207491D01*
X129328536Y-109275312D01*
X129305998Y-109341447D01*
X129260946Y-109380484D01*
X129252182Y-109384949D01*
X129080213Y-109509890D01*
X128929890Y-109660213D01*
X128804951Y-109832179D01*
X128708444Y-110021585D01*
X128642753Y-110223760D01*
X128625980Y-110329664D01*
X128609500Y-110433713D01*
X128609500Y-110646287D01*
X128642754Y-110856243D01*
X128663402Y-110919792D01*
X128708444Y-111058414D01*
X128804951Y-111247820D01*
X128929890Y-111419786D01*
X129080213Y-111570109D01*
X129252182Y-111695050D01*
X129260946Y-111699516D01*
X129311742Y-111747491D01*
X129328536Y-111815312D01*
X129305998Y-111881447D01*
X129260946Y-111920484D01*
X129252182Y-111924949D01*
X129080213Y-112049890D01*
X128929890Y-112200213D01*
X128804951Y-112372179D01*
X128708444Y-112561585D01*
X128642753Y-112763760D01*
X128609500Y-112973713D01*
X128609500Y-113186286D01*
X128640446Y-113381676D01*
X128642754Y-113396243D01*
X128670484Y-113481588D01*
X128708444Y-113598414D01*
X128804951Y-113787820D01*
X128929890Y-113959786D01*
X129080213Y-114110109D01*
X129252179Y-114235048D01*
X129252181Y-114235049D01*
X129252184Y-114235051D01*
X129441588Y-114331557D01*
X129643757Y-114397246D01*
X129853713Y-114430500D01*
X129853714Y-114430500D01*
X130066286Y-114430500D01*
X130066287Y-114430500D01*
X130276243Y-114397246D01*
X130478412Y-114331557D01*
X130667816Y-114235051D01*
X130705676Y-114207544D01*
X130839786Y-114110109D01*
X130839788Y-114110106D01*
X130839792Y-114110104D01*
X130990104Y-113959792D01*
X130990106Y-113959788D01*
X130990109Y-113959786D01*
X131115048Y-113787820D01*
X131115047Y-113787820D01*
X131115051Y-113787816D01*
X131119514Y-113779054D01*
X131167488Y-113728259D01*
X131235308Y-113711463D01*
X131301444Y-113733999D01*
X131340486Y-113779056D01*
X131344951Y-113787820D01*
X131469890Y-113959786D01*
X131620213Y-114110109D01*
X131792179Y-114235048D01*
X131792181Y-114235049D01*
X131792184Y-114235051D01*
X131981588Y-114331557D01*
X132183757Y-114397246D01*
X132393713Y-114430500D01*
X132393714Y-114430500D01*
X132606286Y-114430500D01*
X132606287Y-114430500D01*
X132816243Y-114397246D01*
X133018412Y-114331557D01*
X133207816Y-114235051D01*
X133245676Y-114207544D01*
X133379786Y-114110109D01*
X133379788Y-114110106D01*
X133379792Y-114110104D01*
X133530104Y-113959792D01*
X133530106Y-113959788D01*
X133530109Y-113959786D01*
X133655048Y-113787820D01*
X133655047Y-113787820D01*
X133655051Y-113787816D01*
X133751557Y-113598412D01*
X133817246Y-113396243D01*
X133817248Y-113396229D01*
X133818292Y-113391880D01*
X133821208Y-113381676D01*
X133850971Y-113292184D01*
X134197459Y-112250348D01*
X134227440Y-112201802D01*
X134235449Y-112193793D01*
X134327108Y-112102135D01*
X136149500Y-112102135D01*
X136149500Y-113897870D01*
X136149501Y-113897876D01*
X136155908Y-113957483D01*
X136206202Y-114092328D01*
X136206206Y-114092335D01*
X136292452Y-114207544D01*
X136292455Y-114207547D01*
X136407664Y-114293793D01*
X136407671Y-114293797D01*
X136539082Y-114342810D01*
X136595016Y-114384681D01*
X136619433Y-114450145D01*
X136604582Y-114518418D01*
X136583431Y-114546673D01*
X136469889Y-114660215D01*
X136344951Y-114832179D01*
X136248444Y-115021585D01*
X136182753Y-115223760D01*
X136149500Y-115433713D01*
X136149500Y-115646286D01*
X136178251Y-115827816D01*
X136182754Y-115856243D01*
X136246468Y-116052335D01*
X136248444Y-116058414D01*
X136344951Y-116247820D01*
X136469890Y-116419786D01*
X136620213Y-116570109D01*
X136792179Y-116695048D01*
X136792181Y-116695049D01*
X136792184Y-116695051D01*
X136981588Y-116791557D01*
X137183757Y-116857246D01*
X137393713Y-116890500D01*
X137393714Y-116890500D01*
X137606286Y-116890500D01*
X137606287Y-116890500D01*
X137816243Y-116857246D01*
X138018412Y-116791557D01*
X138207816Y-116695051D01*
X138229789Y-116679086D01*
X138379786Y-116570109D01*
X138379788Y-116570106D01*
X138379792Y-116570104D01*
X138530104Y-116419792D01*
X138530106Y-116419788D01*
X138530109Y-116419786D01*
X138653827Y-116249501D01*
X138655051Y-116247816D01*
X138751557Y-116058412D01*
X138817246Y-115856243D01*
X138850500Y-115646287D01*
X138850500Y-115433713D01*
X138817246Y-115223757D01*
X138751557Y-115021588D01*
X138655051Y-114832184D01*
X138655049Y-114832181D01*
X138655048Y-114832179D01*
X138530109Y-114660213D01*
X138416569Y-114546673D01*
X138383084Y-114485350D01*
X138388068Y-114415658D01*
X138429940Y-114359725D01*
X138460915Y-114342810D01*
X138592331Y-114293796D01*
X138707546Y-114207546D01*
X138793796Y-114092331D01*
X138794707Y-114089890D01*
X138805059Y-114062135D01*
X141149500Y-114062135D01*
X141149500Y-115857870D01*
X141149501Y-115857876D01*
X141155908Y-115917483D01*
X141206202Y-116052328D01*
X141206206Y-116052335D01*
X141292452Y-116167544D01*
X141292455Y-116167547D01*
X141407664Y-116253793D01*
X141407671Y-116253797D01*
X141539082Y-116302810D01*
X141595016Y-116344681D01*
X141619433Y-116410145D01*
X141604582Y-116478418D01*
X141583431Y-116506673D01*
X141469889Y-116620215D01*
X141344951Y-116792179D01*
X141248444Y-116981585D01*
X141182753Y-117183760D01*
X141149500Y-117393713D01*
X141149500Y-117606286D01*
X141182753Y-117816239D01*
X141248444Y-118018414D01*
X141344951Y-118207820D01*
X141469890Y-118379786D01*
X141620213Y-118530109D01*
X141792179Y-118655048D01*
X141792181Y-118655049D01*
X141792184Y-118655051D01*
X141981588Y-118751557D01*
X142183757Y-118817246D01*
X142393713Y-118850500D01*
X142393714Y-118850500D01*
X142606286Y-118850500D01*
X142606287Y-118850500D01*
X142816243Y-118817246D01*
X143018412Y-118751557D01*
X143207816Y-118655051D01*
X143273200Y-118607547D01*
X143379786Y-118530109D01*
X143379788Y-118530106D01*
X143379792Y-118530104D01*
X143530104Y-118379792D01*
X143530106Y-118379788D01*
X143530109Y-118379786D01*
X143655048Y-118207820D01*
X143655047Y-118207820D01*
X143655051Y-118207816D01*
X143751557Y-118018412D01*
X143817246Y-117816243D01*
X143850500Y-117606287D01*
X143850500Y-117393713D01*
X143817246Y-117183757D01*
X143751557Y-116981588D01*
X143655051Y-116792184D01*
X143655049Y-116792181D01*
X143640162Y-116771690D01*
X143640161Y-116771689D01*
X143589628Y-116702135D01*
X150249500Y-116702135D01*
X150249500Y-118297870D01*
X150249501Y-118297876D01*
X150255908Y-118357483D01*
X150306202Y-118492328D01*
X150306206Y-118492335D01*
X150392452Y-118607544D01*
X150392455Y-118607547D01*
X150507664Y-118693793D01*
X150507671Y-118693797D01*
X150642517Y-118744091D01*
X150642516Y-118744091D01*
X150649444Y-118744835D01*
X150702127Y-118750500D01*
X152297872Y-118750499D01*
X152357483Y-118744091D01*
X152492331Y-118693796D01*
X152607546Y-118607546D01*
X152693796Y-118492331D01*
X152744091Y-118357483D01*
X152750500Y-118297873D01*
X152750499Y-116702128D01*
X152744091Y-116642517D01*
X152735770Y-116620208D01*
X152693797Y-116507671D01*
X152693793Y-116507664D01*
X152607547Y-116392455D01*
X152607544Y-116392452D01*
X152492335Y-116306206D01*
X152492328Y-116306202D01*
X152357482Y-116255908D01*
X152357483Y-116255908D01*
X152297883Y-116249501D01*
X152297881Y-116249500D01*
X152297873Y-116249500D01*
X152297864Y-116249500D01*
X150702129Y-116249500D01*
X150702123Y-116249501D01*
X150642516Y-116255908D01*
X150507671Y-116306202D01*
X150507664Y-116306206D01*
X150392455Y-116392452D01*
X150392452Y-116392455D01*
X150306206Y-116507664D01*
X150306202Y-116507671D01*
X150255908Y-116642517D01*
X150250261Y-116695048D01*
X150249501Y-116702123D01*
X150249500Y-116702135D01*
X143589628Y-116702135D01*
X143530109Y-116620214D01*
X143530105Y-116620209D01*
X143416569Y-116506673D01*
X143383084Y-116445350D01*
X143388068Y-116375658D01*
X143429940Y-116319725D01*
X143460915Y-116302810D01*
X143592331Y-116253796D01*
X143707546Y-116167546D01*
X143793796Y-116052331D01*
X143844091Y-115917483D01*
X143850500Y-115857873D01*
X143850499Y-114062128D01*
X143844091Y-114002517D01*
X143828414Y-113960486D01*
X143793797Y-113867671D01*
X143793793Y-113867664D01*
X143707547Y-113752455D01*
X143707544Y-113752452D01*
X143592335Y-113666206D01*
X143592328Y-113666202D01*
X143457482Y-113615908D01*
X143457483Y-113615908D01*
X143397883Y-113609501D01*
X143397881Y-113609500D01*
X143397873Y-113609500D01*
X143397864Y-113609500D01*
X141602129Y-113609500D01*
X141602123Y-113609501D01*
X141542516Y-113615908D01*
X141407671Y-113666202D01*
X141407664Y-113666206D01*
X141292455Y-113752452D01*
X141292452Y-113752455D01*
X141206206Y-113867664D01*
X141206202Y-113867671D01*
X141155908Y-114002517D01*
X141154515Y-114015478D01*
X141149501Y-114062123D01*
X141149500Y-114062135D01*
X138805059Y-114062135D01*
X138822460Y-114015478D01*
X138844091Y-113957483D01*
X138850500Y-113897873D01*
X138850499Y-112102128D01*
X138844091Y-112042517D01*
X138832382Y-112011124D01*
X138793797Y-111907671D01*
X138793793Y-111907664D01*
X138707547Y-111792455D01*
X138707544Y-111792452D01*
X138592335Y-111706206D01*
X138592328Y-111706202D01*
X138457482Y-111655908D01*
X138457483Y-111655908D01*
X138397883Y-111649501D01*
X138397881Y-111649500D01*
X138397873Y-111649500D01*
X138397864Y-111649500D01*
X136602129Y-111649500D01*
X136602123Y-111649501D01*
X136542516Y-111655908D01*
X136407671Y-111706202D01*
X136407664Y-111706206D01*
X136292455Y-111792452D01*
X136292452Y-111792455D01*
X136206206Y-111907664D01*
X136206202Y-111907671D01*
X136155908Y-112042517D01*
X136149501Y-112102116D01*
X136149501Y-112102123D01*
X136149500Y-112102135D01*
X134327108Y-112102135D01*
X136292426Y-110136829D01*
X136353746Y-110103348D01*
X136380095Y-110100514D01*
X141125500Y-110100506D01*
X141192539Y-110120190D01*
X141238294Y-110172994D01*
X141249500Y-110224506D01*
X141249500Y-111797870D01*
X141249501Y-111797876D01*
X141255908Y-111857483D01*
X141306202Y-111992328D01*
X141306206Y-111992335D01*
X141392452Y-112107544D01*
X141392455Y-112107547D01*
X141507664Y-112193793D01*
X141507671Y-112193797D01*
X141642517Y-112244091D01*
X141642516Y-112244091D01*
X141649444Y-112244835D01*
X141702127Y-112250500D01*
X143297872Y-112250499D01*
X143357483Y-112244091D01*
X143492331Y-112193796D01*
X143607546Y-112107546D01*
X143693796Y-111992331D01*
X143744091Y-111857483D01*
X143750500Y-111797873D01*
X143750499Y-110562135D01*
X146149500Y-110562135D01*
X146149500Y-112357870D01*
X146149501Y-112357876D01*
X146155908Y-112417483D01*
X146206202Y-112552328D01*
X146206206Y-112552335D01*
X146292452Y-112667544D01*
X146292455Y-112667547D01*
X146407664Y-112753793D01*
X146407671Y-112753797D01*
X146539082Y-112802810D01*
X146595016Y-112844681D01*
X146619433Y-112910145D01*
X146604582Y-112978418D01*
X146583431Y-113006673D01*
X146469889Y-113120215D01*
X146344951Y-113292179D01*
X146248444Y-113481585D01*
X146182753Y-113683760D01*
X146149500Y-113893713D01*
X146149500Y-114106286D01*
X146179198Y-114293796D01*
X146182754Y-114316243D01*
X146237700Y-114485350D01*
X146248444Y-114518414D01*
X146344951Y-114707820D01*
X146469890Y-114879786D01*
X146620213Y-115030109D01*
X146792179Y-115155048D01*
X146792181Y-115155049D01*
X146792184Y-115155051D01*
X146981588Y-115251557D01*
X147183757Y-115317246D01*
X147393713Y-115350500D01*
X147393714Y-115350500D01*
X147606286Y-115350500D01*
X147606287Y-115350500D01*
X147816243Y-115317246D01*
X148018412Y-115251557D01*
X148207816Y-115155051D01*
X148229789Y-115139086D01*
X148379786Y-115030109D01*
X148379788Y-115030106D01*
X148379792Y-115030104D01*
X148530104Y-114879792D01*
X148530106Y-114879788D01*
X148530109Y-114879786D01*
X148655048Y-114707820D01*
X148655047Y-114707820D01*
X148655051Y-114707816D01*
X148751557Y-114518412D01*
X148817246Y-114316243D01*
X148850500Y-114106287D01*
X148850500Y-113893713D01*
X148817246Y-113683757D01*
X148751557Y-113481588D01*
X148655051Y-113292184D01*
X148655049Y-113292181D01*
X148655048Y-113292179D01*
X148530109Y-113120213D01*
X148416569Y-113006673D01*
X148383084Y-112945350D01*
X148388068Y-112875658D01*
X148429940Y-112819725D01*
X148460915Y-112802810D01*
X148592331Y-112753796D01*
X148707546Y-112667546D01*
X148793796Y-112552331D01*
X148844091Y-112417483D01*
X148850500Y-112357873D01*
X148850499Y-110562128D01*
X148844091Y-110502517D01*
X148793796Y-110367669D01*
X148793795Y-110367668D01*
X148793793Y-110367664D01*
X148707547Y-110252455D01*
X148707544Y-110252452D01*
X148592335Y-110166206D01*
X148592328Y-110166202D01*
X148457482Y-110115908D01*
X148457483Y-110115908D01*
X148397883Y-110109501D01*
X148397881Y-110109500D01*
X148397873Y-110109500D01*
X148397864Y-110109500D01*
X146602129Y-110109500D01*
X146602123Y-110109501D01*
X146542516Y-110115908D01*
X146407671Y-110166202D01*
X146407664Y-110166206D01*
X146292455Y-110252452D01*
X146292452Y-110252455D01*
X146206206Y-110367664D01*
X146206202Y-110367671D01*
X146155908Y-110502517D01*
X146149899Y-110558412D01*
X146149501Y-110562123D01*
X146149500Y-110562135D01*
X143750499Y-110562135D01*
X143750499Y-110224499D01*
X143770184Y-110157461D01*
X143822988Y-110111706D01*
X143874495Y-110100500D01*
X144456951Y-110100500D01*
X144579056Y-110100501D01*
X144707492Y-110066086D01*
X144731784Y-110059577D01*
X144821691Y-110007669D01*
X144868715Y-109980520D01*
X145312415Y-109536818D01*
X145373738Y-109503334D01*
X145400096Y-109500500D01*
X145598543Y-109500500D01*
X145728582Y-109474632D01*
X145791835Y-109462051D01*
X145973914Y-109386632D01*
X146137782Y-109277139D01*
X146277139Y-109137782D01*
X146386632Y-108973914D01*
X146462051Y-108791835D01*
X146480606Y-108698556D01*
X146500500Y-108598543D01*
X146500500Y-108401456D01*
X146462052Y-108208170D01*
X146462051Y-108208169D01*
X146462051Y-108208165D01*
X146461908Y-108207820D01*
X146386635Y-108026092D01*
X146386628Y-108026079D01*
X146277139Y-107862218D01*
X146277136Y-107862214D01*
X146137785Y-107722863D01*
X146137781Y-107722860D01*
X145973920Y-107613371D01*
X145973907Y-107613364D01*
X145791839Y-107537950D01*
X145791829Y-107537947D01*
X145653632Y-107510458D01*
X145598543Y-107499500D01*
X145598541Y-107499500D01*
X145401459Y-107499500D01*
X145401457Y-107499500D01*
X145208170Y-107537947D01*
X145208160Y-107537950D01*
X145026092Y-107613364D01*
X145026079Y-107613371D01*
X144862218Y-107722860D01*
X144862214Y-107722863D01*
X144722863Y-107862214D01*
X144722860Y-107862218D01*
X144613371Y-108026079D01*
X144613364Y-108026092D01*
X144537950Y-108208160D01*
X144537947Y-108208170D01*
X144499500Y-108401456D01*
X144499500Y-108599901D01*
X144490855Y-108629341D01*
X144484332Y-108659328D01*
X144480577Y-108664343D01*
X144479815Y-108666940D01*
X144463181Y-108687582D01*
X144287581Y-108863181D01*
X144226258Y-108896666D01*
X144199900Y-108899500D01*
X144091729Y-108899500D01*
X144024690Y-108879815D01*
X143978935Y-108827011D01*
X143968991Y-108757853D01*
X143970112Y-108751308D01*
X143978764Y-108707816D01*
X143991753Y-108642516D01*
X144000500Y-108598543D01*
X144000500Y-108401456D01*
X143962052Y-108208170D01*
X143962051Y-108208169D01*
X143962051Y-108208165D01*
X143961908Y-108207820D01*
X143886635Y-108026092D01*
X143886628Y-108026079D01*
X143777139Y-107862218D01*
X143777136Y-107862214D01*
X143637785Y-107722863D01*
X143637781Y-107722860D01*
X143473920Y-107613371D01*
X143473907Y-107613364D01*
X143291839Y-107537950D01*
X143291829Y-107537947D01*
X143098543Y-107499500D01*
X143098541Y-107499500D01*
X142901459Y-107499500D01*
X142901457Y-107499500D01*
X142708170Y-107537947D01*
X142708160Y-107537950D01*
X142526090Y-107613366D01*
X142526076Y-107613373D01*
X142513205Y-107621973D01*
X142494550Y-107632238D01*
X141915333Y-107888872D01*
X141865102Y-107899502D01*
X136591966Y-107899515D01*
X136591964Y-107899515D01*
X136433849Y-107899515D01*
X136357485Y-107919977D01*
X136281120Y-107940439D01*
X136281119Y-107940440D01*
X136180879Y-107998314D01*
X136144192Y-108019495D01*
X136144186Y-108019499D01*
X136032383Y-108131303D01*
X133990414Y-110173269D01*
X133929091Y-110206754D01*
X133859399Y-110201770D01*
X133803466Y-110159898D01*
X133784802Y-110123906D01*
X133782204Y-110115909D01*
X133751557Y-110021588D01*
X133655051Y-109832184D01*
X133655049Y-109832181D01*
X133655048Y-109832179D01*
X133530109Y-109660213D01*
X133379786Y-109509890D01*
X133207820Y-109384951D01*
X133207115Y-109384591D01*
X133199054Y-109380485D01*
X133148259Y-109332512D01*
X133131463Y-109264692D01*
X133153999Y-109198556D01*
X133199054Y-109159515D01*
X133207816Y-109155051D01*
X133231586Y-109137781D01*
X133379786Y-109030109D01*
X133379788Y-109030106D01*
X133379792Y-109030104D01*
X133530104Y-108879792D01*
X133530106Y-108879788D01*
X133530109Y-108879786D01*
X133655048Y-108707820D01*
X133655047Y-108707820D01*
X133655051Y-108707816D01*
X133751557Y-108518412D01*
X133817246Y-108316243D01*
X133850500Y-108106287D01*
X133850500Y-107893713D01*
X133817246Y-107683757D01*
X133751557Y-107481588D01*
X133706783Y-107393713D01*
X160149500Y-107393713D01*
X160149500Y-107606287D01*
X160182754Y-107816243D01*
X160223108Y-107940440D01*
X160248444Y-108018414D01*
X160344951Y-108207820D01*
X160469890Y-108379786D01*
X160620213Y-108530109D01*
X160792182Y-108655050D01*
X160800946Y-108659516D01*
X160851742Y-108707491D01*
X160868536Y-108775312D01*
X160845998Y-108841447D01*
X160800946Y-108880484D01*
X160792182Y-108884949D01*
X160620213Y-109009890D01*
X160469890Y-109160213D01*
X160344951Y-109332179D01*
X160248444Y-109521585D01*
X160182753Y-109723760D01*
X160153488Y-109908536D01*
X160149500Y-109933713D01*
X160149500Y-110146287D01*
X160182754Y-110356243D01*
X160230281Y-110502516D01*
X160248444Y-110558414D01*
X160344951Y-110747820D01*
X160469890Y-110919786D01*
X160620213Y-111070109D01*
X160792182Y-111195050D01*
X160800946Y-111199516D01*
X160851742Y-111247491D01*
X160868536Y-111315312D01*
X160845998Y-111381447D01*
X160800946Y-111420484D01*
X160792182Y-111424949D01*
X160620213Y-111549890D01*
X160469890Y-111700213D01*
X160344951Y-111872179D01*
X160248444Y-112061585D01*
X160182753Y-112263760D01*
X160149500Y-112473713D01*
X160149500Y-112686286D01*
X160179493Y-112875658D01*
X160182754Y-112896243D01*
X160209454Y-112978418D01*
X160248444Y-113098414D01*
X160344951Y-113287820D01*
X160469890Y-113459786D01*
X160620213Y-113610109D01*
X160792182Y-113735050D01*
X160800946Y-113739516D01*
X160851742Y-113787491D01*
X160868536Y-113855312D01*
X160845998Y-113921447D01*
X160800946Y-113960484D01*
X160792182Y-113964949D01*
X160620213Y-114089890D01*
X160469890Y-114240213D01*
X160344951Y-114412179D01*
X160248444Y-114601585D01*
X160248443Y-114601587D01*
X160248443Y-114601588D01*
X160229394Y-114660215D01*
X160182753Y-114803760D01*
X160149500Y-115013713D01*
X160149500Y-115226286D01*
X160182753Y-115436239D01*
X160248444Y-115638414D01*
X160344951Y-115827820D01*
X160469890Y-115999786D01*
X160620213Y-116150109D01*
X160792179Y-116275048D01*
X160792181Y-116275049D01*
X160792184Y-116275051D01*
X160981588Y-116371557D01*
X161183757Y-116437246D01*
X161393713Y-116470500D01*
X161393714Y-116470500D01*
X161606286Y-116470500D01*
X161606287Y-116470500D01*
X161816243Y-116437246D01*
X162018412Y-116371557D01*
X162207816Y-116275051D01*
X162355784Y-116167547D01*
X162379786Y-116150109D01*
X162379788Y-116150106D01*
X162379792Y-116150104D01*
X162530104Y-115999792D01*
X162530106Y-115999788D01*
X162530109Y-115999786D01*
X162655048Y-115827820D01*
X162655047Y-115827820D01*
X162655051Y-115827816D01*
X162751557Y-115638412D01*
X162817246Y-115436243D01*
X162850500Y-115226287D01*
X162850500Y-115013713D01*
X162817246Y-114803757D01*
X162751557Y-114601588D01*
X162655051Y-114412184D01*
X162655049Y-114412181D01*
X162655048Y-114412179D01*
X162530109Y-114240213D01*
X162379786Y-114089890D01*
X162207820Y-113964951D01*
X162207115Y-113964591D01*
X162199054Y-113960485D01*
X162148259Y-113912512D01*
X162131463Y-113844692D01*
X162153999Y-113778556D01*
X162199054Y-113739515D01*
X162207816Y-113735051D01*
X162302574Y-113666206D01*
X162379786Y-113610109D01*
X162379788Y-113610106D01*
X162379792Y-113610104D01*
X162530104Y-113459792D01*
X162530106Y-113459788D01*
X162530109Y-113459786D01*
X162655048Y-113287820D01*
X162655047Y-113287820D01*
X162655051Y-113287816D01*
X162751557Y-113098412D01*
X162817246Y-112896243D01*
X162850500Y-112686287D01*
X162850500Y-112473713D01*
X162817246Y-112263757D01*
X162751557Y-112061588D01*
X162655051Y-111872184D01*
X162655049Y-111872181D01*
X162655048Y-111872179D01*
X162530109Y-111700213D01*
X162379786Y-111549890D01*
X162207820Y-111424951D01*
X162207115Y-111424591D01*
X162199054Y-111420485D01*
X162148259Y-111372512D01*
X162131463Y-111304692D01*
X162153999Y-111238556D01*
X162199054Y-111199515D01*
X162207816Y-111195051D01*
X162319776Y-111113708D01*
X162379786Y-111070109D01*
X162379788Y-111070106D01*
X162379792Y-111070104D01*
X162530104Y-110919792D01*
X162530106Y-110919788D01*
X162530109Y-110919786D01*
X162655048Y-110747820D01*
X162655047Y-110747820D01*
X162655051Y-110747816D01*
X162751557Y-110558412D01*
X162817246Y-110356243D01*
X162850500Y-110146287D01*
X162850500Y-109933713D01*
X162817246Y-109723757D01*
X162751557Y-109521588D01*
X162655051Y-109332184D01*
X162655049Y-109332181D01*
X162655048Y-109332179D01*
X162530109Y-109160213D01*
X162379786Y-109009890D01*
X162207820Y-108884951D01*
X162207115Y-108884591D01*
X162199054Y-108880485D01*
X162148259Y-108832512D01*
X162131463Y-108764692D01*
X162153999Y-108698556D01*
X162199054Y-108659515D01*
X162207816Y-108655051D01*
X162285596Y-108598541D01*
X162379786Y-108530109D01*
X162379788Y-108530106D01*
X162379792Y-108530104D01*
X162530104Y-108379792D01*
X162530106Y-108379788D01*
X162530109Y-108379786D01*
X162655048Y-108207820D01*
X162655047Y-108207820D01*
X162655051Y-108207816D01*
X162751557Y-108018412D01*
X162817246Y-107816243D01*
X162850500Y-107606287D01*
X162850500Y-107393713D01*
X162817246Y-107183757D01*
X162751557Y-106981588D01*
X162655051Y-106792184D01*
X162655049Y-106792181D01*
X162655048Y-106792179D01*
X162530109Y-106620213D01*
X162379786Y-106469890D01*
X162207820Y-106344951D01*
X162018414Y-106248444D01*
X162018413Y-106248443D01*
X162018412Y-106248443D01*
X161816243Y-106182754D01*
X161816241Y-106182753D01*
X161816240Y-106182753D01*
X161654957Y-106157208D01*
X161606287Y-106149500D01*
X161393713Y-106149500D01*
X161345042Y-106157208D01*
X161183760Y-106182753D01*
X160981585Y-106248444D01*
X160792179Y-106344951D01*
X160620213Y-106469890D01*
X160469890Y-106620213D01*
X160344951Y-106792179D01*
X160248444Y-106981585D01*
X160182753Y-107183760D01*
X160153488Y-107368536D01*
X160149500Y-107393713D01*
X133706783Y-107393713D01*
X133655051Y-107292184D01*
X133655049Y-107292181D01*
X133655048Y-107292179D01*
X133530109Y-107120213D01*
X133379786Y-106969890D01*
X133207820Y-106844951D01*
X133207115Y-106844591D01*
X133199054Y-106840485D01*
X133148259Y-106792512D01*
X133131463Y-106724692D01*
X133153999Y-106658556D01*
X133199054Y-106619515D01*
X133207816Y-106615051D01*
X133229789Y-106599086D01*
X133379786Y-106490109D01*
X133379788Y-106490106D01*
X133379792Y-106490104D01*
X133530104Y-106339792D01*
X133530106Y-106339788D01*
X133530109Y-106339786D01*
X133655048Y-106167820D01*
X133655047Y-106167820D01*
X133655051Y-106167816D01*
X133751557Y-105978412D01*
X133817246Y-105776243D01*
X133850500Y-105566287D01*
X133850500Y-105353713D01*
X133817246Y-105143757D01*
X133751557Y-104941588D01*
X133655051Y-104752184D01*
X133655049Y-104752181D01*
X133655048Y-104752179D01*
X133530109Y-104580213D01*
X133379786Y-104429890D01*
X133207820Y-104304951D01*
X133018414Y-104208444D01*
X133018413Y-104208443D01*
X133018412Y-104208443D01*
X132816243Y-104142754D01*
X132816241Y-104142753D01*
X132816240Y-104142753D01*
X132654957Y-104117208D01*
X132606287Y-104109500D01*
X132393713Y-104109500D01*
X132345042Y-104117208D01*
X132183760Y-104142753D01*
X131981585Y-104208444D01*
X131792179Y-104304951D01*
X131620213Y-104429890D01*
X131469890Y-104580213D01*
X131344949Y-104752182D01*
X131340484Y-104760946D01*
X131292509Y-104811742D01*
X131224688Y-104828536D01*
X131158553Y-104805998D01*
X131119516Y-104760946D01*
X131115050Y-104752182D01*
X130990109Y-104580213D01*
X130839786Y-104429890D01*
X130667820Y-104304951D01*
X130478414Y-104208444D01*
X130478413Y-104208443D01*
X130478412Y-104208443D01*
X130276243Y-104142754D01*
X130276241Y-104142753D01*
X130276240Y-104142753D01*
X130114957Y-104117208D01*
X130066287Y-104109500D01*
X129853713Y-104109500D01*
X129805042Y-104117208D01*
X129643760Y-104142753D01*
X129441585Y-104208444D01*
X129252179Y-104304951D01*
X129080213Y-104429890D01*
X128929890Y-104580213D01*
X128804951Y-104752179D01*
X128708444Y-104941585D01*
X128642753Y-105143760D01*
X128609500Y-105353713D01*
X127625500Y-105353713D01*
X127625500Y-98433713D01*
X129149500Y-98433713D01*
X129149500Y-98646286D01*
X129180410Y-98841447D01*
X129182754Y-98856243D01*
X129232677Y-99009890D01*
X129248444Y-99058414D01*
X129344951Y-99247820D01*
X129469890Y-99419786D01*
X129620213Y-99570109D01*
X129792182Y-99695050D01*
X129800946Y-99699516D01*
X129851742Y-99747491D01*
X129868536Y-99815312D01*
X129845998Y-99881447D01*
X129800946Y-99920484D01*
X129792182Y-99924949D01*
X129620213Y-100049890D01*
X129469890Y-100200213D01*
X129344951Y-100372179D01*
X129248444Y-100561585D01*
X129182753Y-100763760D01*
X129149500Y-100973713D01*
X129149500Y-101186286D01*
X129182753Y-101396239D01*
X129248444Y-101598414D01*
X129344951Y-101787820D01*
X129469890Y-101959786D01*
X129620213Y-102110109D01*
X129792179Y-102235048D01*
X129792181Y-102235049D01*
X129792184Y-102235051D01*
X129981588Y-102331557D01*
X130183757Y-102397246D01*
X130393713Y-102430500D01*
X130393714Y-102430500D01*
X130606286Y-102430500D01*
X130606287Y-102430500D01*
X130816243Y-102397246D01*
X131018412Y-102331557D01*
X131207816Y-102235051D01*
X131229789Y-102219086D01*
X131379786Y-102110109D01*
X131379788Y-102110106D01*
X131379792Y-102110104D01*
X131530104Y-101959792D01*
X131530106Y-101959788D01*
X131530109Y-101959786D01*
X131655048Y-101787820D01*
X131655047Y-101787820D01*
X131655051Y-101787816D01*
X131751557Y-101598412D01*
X131817246Y-101396243D01*
X131850500Y-101186287D01*
X131850500Y-100973713D01*
X131817246Y-100763757D01*
X131751557Y-100561588D01*
X131655051Y-100372184D01*
X131655049Y-100372181D01*
X131655048Y-100372179D01*
X131530109Y-100200213D01*
X131379786Y-100049890D01*
X131207820Y-99924951D01*
X131207115Y-99924591D01*
X131199054Y-99920485D01*
X131148259Y-99872512D01*
X131131463Y-99804692D01*
X131153999Y-99738556D01*
X131199054Y-99699515D01*
X131207816Y-99695051D01*
X131229789Y-99679086D01*
X131379786Y-99570109D01*
X131379788Y-99570106D01*
X131379792Y-99570104D01*
X131530104Y-99419792D01*
X131530106Y-99419788D01*
X131530109Y-99419786D01*
X131655048Y-99247820D01*
X131655047Y-99247820D01*
X131655051Y-99247816D01*
X131751557Y-99058412D01*
X131817246Y-98856243D01*
X131850500Y-98646287D01*
X131850500Y-98433713D01*
X131817246Y-98223757D01*
X131751557Y-98021588D01*
X131655051Y-97832184D01*
X131655049Y-97832181D01*
X131655048Y-97832179D01*
X131530109Y-97660213D01*
X131379786Y-97509890D01*
X131207820Y-97384951D01*
X131018414Y-97288444D01*
X131018413Y-97288443D01*
X131018412Y-97288443D01*
X130816243Y-97222754D01*
X130816241Y-97222753D01*
X130816240Y-97222753D01*
X130654957Y-97197208D01*
X130606287Y-97189500D01*
X130393713Y-97189500D01*
X130345042Y-97197208D01*
X130183760Y-97222753D01*
X129981585Y-97288444D01*
X129792179Y-97384951D01*
X129620213Y-97509890D01*
X129469890Y-97660213D01*
X129344951Y-97832179D01*
X129248444Y-98021585D01*
X129182753Y-98223760D01*
X129149500Y-98433713D01*
X127625500Y-98433713D01*
X127625500Y-94853713D01*
X160149500Y-94853713D01*
X160149500Y-95066286D01*
X160182753Y-95276239D01*
X160248444Y-95478414D01*
X160344951Y-95667820D01*
X160469890Y-95839786D01*
X160620213Y-95990109D01*
X160792182Y-96115050D01*
X160800946Y-96119516D01*
X160851742Y-96167491D01*
X160868536Y-96235312D01*
X160845998Y-96301447D01*
X160800946Y-96340484D01*
X160792182Y-96344949D01*
X160620213Y-96469890D01*
X160469890Y-96620213D01*
X160344951Y-96792179D01*
X160248444Y-96981585D01*
X160182753Y-97183760D01*
X160149500Y-97393713D01*
X160149500Y-97606286D01*
X160182753Y-97816239D01*
X160248444Y-98018414D01*
X160344951Y-98207820D01*
X160469890Y-98379786D01*
X160620213Y-98530109D01*
X160792182Y-98655050D01*
X160800946Y-98659516D01*
X160851742Y-98707491D01*
X160868536Y-98775312D01*
X160845998Y-98841447D01*
X160800946Y-98880484D01*
X160792182Y-98884949D01*
X160620213Y-99009890D01*
X160469890Y-99160213D01*
X160344951Y-99332179D01*
X160248444Y-99521585D01*
X160248443Y-99521587D01*
X160248443Y-99521588D01*
X160215598Y-99622672D01*
X160182753Y-99723760D01*
X160149500Y-99933713D01*
X160149500Y-100146286D01*
X160182753Y-100356239D01*
X160248444Y-100558414D01*
X160344951Y-100747820D01*
X160469890Y-100919786D01*
X160620213Y-101070109D01*
X160792179Y-101195048D01*
X160792181Y-101195049D01*
X160792184Y-101195051D01*
X160981588Y-101291557D01*
X161183757Y-101357246D01*
X161393713Y-101390500D01*
X161393714Y-101390500D01*
X161606286Y-101390500D01*
X161606287Y-101390500D01*
X161816243Y-101357246D01*
X162018412Y-101291557D01*
X162207816Y-101195051D01*
X162229789Y-101179086D01*
X162379786Y-101070109D01*
X162379788Y-101070106D01*
X162379792Y-101070104D01*
X162530104Y-100919792D01*
X162530106Y-100919788D01*
X162530109Y-100919786D01*
X162655048Y-100747820D01*
X162655047Y-100747820D01*
X162655051Y-100747816D01*
X162751557Y-100558412D01*
X162817246Y-100356243D01*
X162850500Y-100146287D01*
X162850500Y-99933713D01*
X162817246Y-99723757D01*
X162751557Y-99521588D01*
X162655051Y-99332184D01*
X162655049Y-99332181D01*
X162655048Y-99332179D01*
X162530109Y-99160213D01*
X162379786Y-99009890D01*
X162207820Y-98884951D01*
X162207115Y-98884591D01*
X162199054Y-98880485D01*
X162148259Y-98832512D01*
X162131463Y-98764692D01*
X162153999Y-98698556D01*
X162199054Y-98659515D01*
X162207816Y-98655051D01*
X162229789Y-98639086D01*
X162379786Y-98530109D01*
X162379788Y-98530106D01*
X162379792Y-98530104D01*
X162530104Y-98379792D01*
X162530106Y-98379788D01*
X162530109Y-98379786D01*
X162655048Y-98207820D01*
X162655047Y-98207820D01*
X162655051Y-98207816D01*
X162751557Y-98018412D01*
X162817246Y-97816243D01*
X162850500Y-97606287D01*
X162850500Y-97393713D01*
X162817246Y-97183757D01*
X162751557Y-96981588D01*
X162655051Y-96792184D01*
X162655049Y-96792181D01*
X162655048Y-96792179D01*
X162530109Y-96620213D01*
X162379786Y-96469890D01*
X162207820Y-96344951D01*
X162207115Y-96344591D01*
X162199054Y-96340485D01*
X162148259Y-96292512D01*
X162131463Y-96224692D01*
X162153999Y-96158556D01*
X162199054Y-96119515D01*
X162207816Y-96115051D01*
X162229789Y-96099086D01*
X162379786Y-95990109D01*
X162379788Y-95990106D01*
X162379792Y-95990104D01*
X162530104Y-95839792D01*
X162530106Y-95839788D01*
X162530109Y-95839786D01*
X162655048Y-95667820D01*
X162655047Y-95667820D01*
X162655051Y-95667816D01*
X162751557Y-95478412D01*
X162817246Y-95276243D01*
X162850500Y-95066287D01*
X162850500Y-94853713D01*
X162817246Y-94643757D01*
X162751557Y-94441588D01*
X162655051Y-94252184D01*
X162655049Y-94252181D01*
X162655048Y-94252179D01*
X162530109Y-94080213D01*
X162379786Y-93929890D01*
X162207820Y-93804951D01*
X162018414Y-93708444D01*
X162018413Y-93708443D01*
X162018412Y-93708443D01*
X161816243Y-93642754D01*
X161816241Y-93642753D01*
X161816240Y-93642753D01*
X161654957Y-93617208D01*
X161606287Y-93609500D01*
X161393713Y-93609500D01*
X161345042Y-93617208D01*
X161183760Y-93642753D01*
X160981585Y-93708444D01*
X160792179Y-93804951D01*
X160620213Y-93929890D01*
X160469890Y-94080213D01*
X160344951Y-94252179D01*
X160248444Y-94441585D01*
X160182753Y-94643760D01*
X160149500Y-94853713D01*
X127625500Y-94853713D01*
X127625500Y-91202135D01*
X133249500Y-91202135D01*
X133249500Y-92797870D01*
X133249501Y-92797876D01*
X133255908Y-92857483D01*
X133306202Y-92992328D01*
X133306206Y-92992335D01*
X133392452Y-93107544D01*
X133392455Y-93107547D01*
X133507664Y-93193793D01*
X133507671Y-93193797D01*
X133642517Y-93244091D01*
X133642516Y-93244091D01*
X133649444Y-93244835D01*
X133702127Y-93250500D01*
X135297872Y-93250499D01*
X135357483Y-93244091D01*
X135492331Y-93193796D01*
X135607546Y-93107546D01*
X135693796Y-92992331D01*
X135744091Y-92857483D01*
X135750500Y-92797873D01*
X135750499Y-91202128D01*
X135744091Y-91142517D01*
X135693796Y-91007669D01*
X135693795Y-91007668D01*
X135693793Y-91007664D01*
X135607547Y-90892455D01*
X135607544Y-90892452D01*
X135492335Y-90806206D01*
X135492328Y-90806202D01*
X135357482Y-90755908D01*
X135357483Y-90755908D01*
X135297883Y-90749501D01*
X135297881Y-90749500D01*
X135297873Y-90749500D01*
X135297864Y-90749500D01*
X133702129Y-90749500D01*
X133702123Y-90749501D01*
X133642516Y-90755908D01*
X133507671Y-90806202D01*
X133507664Y-90806206D01*
X133392455Y-90892452D01*
X133392452Y-90892455D01*
X133306206Y-91007664D01*
X133306202Y-91007671D01*
X133255908Y-91142517D01*
X133249501Y-91202116D01*
X133249501Y-91202123D01*
X133249500Y-91202135D01*
X127625500Y-91202135D01*
X127625500Y-90499000D01*
X127645185Y-90431961D01*
X127697989Y-90386206D01*
X127749500Y-90375000D01*
X163825500Y-90375000D01*
X163892539Y-90394685D01*
G37*
G04 #@! TD.AperFunction*
M02*
