G04 #@! TF.GenerationSoftware,KiCad,Pcbnew,9.0.0*
G04 #@! TF.CreationDate,2025-03-07T02:47:21-06:00*
G04 #@! TF.ProjectId,ATWILC1000_Breakout,41545749-4c43-4313-9030-305f42726561,rev?*
G04 #@! TF.SameCoordinates,Original*
G04 #@! TF.FileFunction,Soldermask,Top*
G04 #@! TF.FilePolarity,Negative*
%FSLAX46Y46*%
G04 Gerber Fmt 4.6, Leading zero omitted, Abs format (unit mm)*
G04 Created by KiCad (PCBNEW 9.0.0) date 2025-03-07 02:47:21*
%MOMM*%
%LPD*%
G01*
G04 APERTURE LIST*
G04 Aperture macros list*
%AMRoundRect*
0 Rectangle with rounded corners*
0 $1 Rounding radius*
0 $2 $3 $4 $5 $6 $7 $8 $9 X,Y pos of 4 corners*
0 Add a 4 corners polygon primitive as box body*
4,1,4,$2,$3,$4,$5,$6,$7,$8,$9,$2,$3,0*
0 Add four circle primitives for the rounded corners*
1,1,$1+$1,$2,$3*
1,1,$1+$1,$4,$5*
1,1,$1+$1,$6,$7*
1,1,$1+$1,$8,$9*
0 Add four rect primitives between the rounded corners*
20,1,$1+$1,$2,$3,$4,$5,0*
20,1,$1+$1,$4,$5,$6,$7,0*
20,1,$1+$1,$6,$7,$8,$9,0*
20,1,$1+$1,$8,$9,$2,$3,0*%
G04 Aperture macros list end*
%ADD10R,1.700000X1.700000*%
%ADD11O,1.700000X1.700000*%
%ADD12R,1.500000X1.500000*%
%ADD13RoundRect,0.250000X-0.350000X-0.450000X0.350000X-0.450000X0.350000X0.450000X-0.350000X0.450000X0*%
%ADD14RoundRect,0.250000X-0.337500X-0.475000X0.337500X-0.475000X0.337500X0.475000X-0.337500X0.475000X0*%
%ADD15R,3.700000X3.700000*%
%ADD16R,1.900000X0.800000*%
%ADD17R,0.800000X1.900000*%
G04 APERTURE END LIST*
D10*
X130500000Y-96000000D03*
D11*
X130500000Y-98540000D03*
X130500000Y-101080000D03*
D10*
X161500000Y-92420000D03*
D11*
X161500000Y-94960000D03*
X161500000Y-97500000D03*
X161500000Y-100040000D03*
D10*
X132500000Y-115620000D03*
D11*
X129960000Y-115620000D03*
X132500000Y-113080000D03*
X129960000Y-113080000D03*
X132500000Y-110540000D03*
X129960000Y-110540000D03*
X132500000Y-108000000D03*
X129960000Y-108000000D03*
X132500000Y-105460000D03*
X129960000Y-105460000D03*
D12*
X130000000Y-92000000D03*
D10*
X147500000Y-111460000D03*
D11*
X147500000Y-114000000D03*
X147500000Y-116540000D03*
X147500000Y-119080000D03*
D13*
X134500000Y-95000000D03*
X136500000Y-95000000D03*
D12*
X142500000Y-121500000D03*
D14*
X151000000Y-114500000D03*
X153075000Y-114500000D03*
D10*
X142500000Y-114960000D03*
D11*
X142500000Y-117500000D03*
D12*
X134500000Y-92000000D03*
D10*
X161500000Y-117660000D03*
D11*
X161500000Y-115120000D03*
X161500000Y-112580000D03*
X161500000Y-110040000D03*
X161500000Y-107500000D03*
D12*
X142500000Y-111000000D03*
D15*
X146480000Y-100730000D03*
D16*
X154330000Y-104330000D03*
X154330000Y-103320000D03*
X154330000Y-102304000D03*
X154330000Y-101288000D03*
X154330000Y-97224000D03*
X154330000Y-95192000D03*
X154330000Y-94176000D03*
X154330000Y-93160000D03*
X154330000Y-92144000D03*
X139600000Y-94176000D03*
X139600000Y-95192000D03*
X139600000Y-96208000D03*
X139600000Y-97224000D03*
X139600000Y-98240000D03*
X139600000Y-99256000D03*
X139600000Y-100272000D03*
X139600000Y-101288000D03*
X139600000Y-102304000D03*
X139600000Y-103320000D03*
D17*
X141500000Y-107000000D03*
X144548000Y-107000000D03*
X145564000Y-107000000D03*
X146580000Y-107000000D03*
X147596000Y-107000000D03*
X148612000Y-107000000D03*
X149628000Y-107000000D03*
X150644000Y-107000000D03*
X151660000Y-107000000D03*
D12*
X151500000Y-117500000D03*
D14*
X151000000Y-112000000D03*
X153075000Y-112000000D03*
D10*
X137500000Y-113000000D03*
D11*
X137500000Y-115540000D03*
X137500000Y-118080000D03*
X137500000Y-120620000D03*
D12*
X158000000Y-120660000D03*
M02*
