M48
; DRILL file {KiCad 9.0.0} date 2025-03-07T02:48:02-0600
; FORMAT={-:-/ absolute / metric / decimal}
; #@! TF.CreationDate,2025-03-07T02:48:02-06:00
; #@! TF.GenerationSoftware,Kicad,Pcbnew,9.0.0
; #@! TF.FileFunction,Plated,1,2,PTH
FMAT,2
METRIC
; #@! TA.AperFunction,Plated,PTH,ViaDrill
T1C0.300
; #@! TA.AperFunction,Plated,PTH,ViaDrill
T2C0.500
; #@! TA.AperFunction,Plated,PTH,ComponentDrill
T3C0.700
; #@! TA.AperFunction,Plated,PTH,ComponentDrill
T4C1.000
%
G90
G05
T1
X141.292Y-96.208
X153.0Y-107.086
X155.976Y-92.147
T2
X143.0Y-108.5
X145.5Y-99.5
X145.5Y-102.0
X145.5Y-108.5
X146.48Y-100.73
X147.5Y-99.5
X147.5Y-102.0
T3
X130.0Y-92.0
X134.5Y-92.0
X142.5Y-111.0
X142.5Y-121.5
X151.5Y-117.5
X158.0Y-120.66
T4
X129.96Y-105.46
X129.96Y-108.0
X129.96Y-110.54
X129.96Y-113.08
X129.96Y-115.62
X130.5Y-96.0
X130.5Y-98.54
X130.5Y-101.08
X132.5Y-105.46
X132.5Y-108.0
X132.5Y-110.54
X132.5Y-113.08
X132.5Y-115.62
X137.5Y-113.0
X137.5Y-115.54
X137.5Y-118.08
X137.5Y-120.62
X142.5Y-114.96
X142.5Y-117.5
X147.5Y-111.46
X147.5Y-114.0
X147.5Y-116.54
X147.5Y-119.08
X161.5Y-92.42
X161.5Y-94.96
X161.5Y-97.5
X161.5Y-100.04
X161.5Y-107.5
X161.5Y-110.04
X161.5Y-112.58
X161.5Y-115.12
X161.5Y-117.66
M30
