%TF.GenerationSoftware,KiCad,Pcbnew,9.0.0*%
%TF.CreationDate,2025-03-07T02:48:02-06:00*%
%TF.ProjectId,ATWILC1000_Breakout,41545749-4c43-4313-9030-305f42726561,rev?*%
%TF.SameCoordinates,Original*%
%TF.FileFunction,Drillmap*%
%TF.FilePolarity,Positive*%
%FSLAX45Y45*%
G04 Gerber Fmt 4.5, Leading zero omitted, Abs format (unit mm)*
G04 Created by KiCad (PCBNEW 9.0.0) date 2025-03-07 02:48:02*
%MOMM*%
%LPD*%
G01*
G04 APERTURE LIST*
%ADD10C,0.050000*%
%ADD11C,0.200000*%
%ADD12C,0.100000*%
G04 APERTURE END LIST*
D10*
X12732500Y-8387500D02*
X16425000Y-8387500D01*
X16425000Y-12387500D01*
X12732500Y-12387500D01*
X12732500Y-8387500D01*
D11*
D12*
X14114200Y-9605800D02*
X14144200Y-9635800D01*
X14144200Y-9605800D02*
X14114200Y-9635800D01*
X15285000Y-10693568D02*
X15315000Y-10723568D01*
X15315000Y-10693568D02*
X15285000Y-10723568D01*
X15582643Y-9199730D02*
X15612643Y-9229730D01*
X15612643Y-9199730D02*
X15582643Y-9229730D01*
X14325000Y-10850000D02*
G75*
G02*
X14275000Y-10850000I-25000J0D01*
G01*
X14275000Y-10850000D02*
G75*
G02*
X14325000Y-10850000I25000J0D01*
G01*
X14575000Y-9950000D02*
G75*
G02*
X14525000Y-9950000I-25000J0D01*
G01*
X14525000Y-9950000D02*
G75*
G02*
X14575000Y-9950000I25000J0D01*
G01*
X14575000Y-10200000D02*
G75*
G02*
X14525000Y-10200000I-25000J0D01*
G01*
X14525000Y-10200000D02*
G75*
G02*
X14575000Y-10200000I25000J0D01*
G01*
X14575000Y-10850000D02*
G75*
G02*
X14525000Y-10850000I-25000J0D01*
G01*
X14525000Y-10850000D02*
G75*
G02*
X14575000Y-10850000I25000J0D01*
G01*
X14673000Y-10073000D02*
G75*
G02*
X14623000Y-10073000I-25000J0D01*
G01*
X14623000Y-10073000D02*
G75*
G02*
X14673000Y-10073000I25000J0D01*
G01*
X14775000Y-9950000D02*
G75*
G02*
X14725000Y-9950000I-25000J0D01*
G01*
X14725000Y-9950000D02*
G75*
G02*
X14775000Y-9950000I25000J0D01*
G01*
X14775000Y-10200000D02*
G75*
G02*
X14725000Y-10200000I-25000J0D01*
G01*
X14725000Y-10200000D02*
G75*
G02*
X14775000Y-10200000I25000J0D01*
G01*
X13000000Y-9165000D02*
X13000000Y-9235000D01*
X12965000Y-9200000D02*
X13035000Y-9200000D01*
X13450000Y-9165000D02*
X13450000Y-9235000D01*
X13415000Y-9200000D02*
X13485000Y-9200000D01*
X14250000Y-11065000D02*
X14250000Y-11135000D01*
X14215000Y-11100000D02*
X14285000Y-11100000D01*
X14250000Y-12115000D02*
X14250000Y-12185000D01*
X14215000Y-12150000D02*
X14285000Y-12150000D01*
X15150000Y-11715000D02*
X15150000Y-11785000D01*
X15115000Y-11750000D02*
X15185000Y-11750000D01*
X15800000Y-12031000D02*
X15800000Y-12101000D01*
X15765000Y-12066000D02*
X15835000Y-12066000D01*
X13031356Y-10581356D02*
X13031356Y-10510644D01*
X12960644Y-10510644D01*
X12960644Y-10581356D01*
X13031356Y-10581356D01*
X13031356Y-10835356D02*
X13031356Y-10764644D01*
X12960644Y-10764644D01*
X12960644Y-10835356D01*
X13031356Y-10835356D01*
X13031356Y-11089356D02*
X13031356Y-11018644D01*
X12960644Y-11018644D01*
X12960644Y-11089356D01*
X13031356Y-11089356D01*
X13031356Y-11343356D02*
X13031356Y-11272644D01*
X12960644Y-11272644D01*
X12960644Y-11343356D01*
X13031356Y-11343356D01*
X13031356Y-11597356D02*
X13031356Y-11526644D01*
X12960644Y-11526644D01*
X12960644Y-11597356D01*
X13031356Y-11597356D01*
X13085356Y-9635356D02*
X13085356Y-9564644D01*
X13014644Y-9564644D01*
X13014644Y-9635356D01*
X13085356Y-9635356D01*
X13085356Y-9889356D02*
X13085356Y-9818644D01*
X13014644Y-9818644D01*
X13014644Y-9889356D01*
X13085356Y-9889356D01*
X13085356Y-10143356D02*
X13085356Y-10072644D01*
X13014644Y-10072644D01*
X13014644Y-10143356D01*
X13085356Y-10143356D01*
X13285356Y-10581356D02*
X13285356Y-10510644D01*
X13214644Y-10510644D01*
X13214644Y-10581356D01*
X13285356Y-10581356D01*
X13285356Y-10835356D02*
X13285356Y-10764644D01*
X13214644Y-10764644D01*
X13214644Y-10835356D01*
X13285356Y-10835356D01*
X13285356Y-11089356D02*
X13285356Y-11018644D01*
X13214644Y-11018644D01*
X13214644Y-11089356D01*
X13285356Y-11089356D01*
X13285356Y-11343356D02*
X13285356Y-11272644D01*
X13214644Y-11272644D01*
X13214644Y-11343356D01*
X13285356Y-11343356D01*
X13285356Y-11597356D02*
X13285356Y-11526644D01*
X13214644Y-11526644D01*
X13214644Y-11597356D01*
X13285356Y-11597356D01*
X13785356Y-11335356D02*
X13785356Y-11264644D01*
X13714644Y-11264644D01*
X13714644Y-11335356D01*
X13785356Y-11335356D01*
X13785356Y-11589356D02*
X13785356Y-11518644D01*
X13714644Y-11518644D01*
X13714644Y-11589356D01*
X13785356Y-11589356D01*
X13785356Y-11843356D02*
X13785356Y-11772644D01*
X13714644Y-11772644D01*
X13714644Y-11843356D01*
X13785356Y-11843356D01*
X13785356Y-12097356D02*
X13785356Y-12026644D01*
X13714644Y-12026644D01*
X13714644Y-12097356D01*
X13785356Y-12097356D01*
X14285356Y-11531356D02*
X14285356Y-11460644D01*
X14214644Y-11460644D01*
X14214644Y-11531356D01*
X14285356Y-11531356D01*
X14285356Y-11785356D02*
X14285356Y-11714644D01*
X14214644Y-11714644D01*
X14214644Y-11785356D01*
X14285356Y-11785356D01*
X14785356Y-11181356D02*
X14785356Y-11110644D01*
X14714644Y-11110644D01*
X14714644Y-11181356D01*
X14785356Y-11181356D01*
X14785356Y-11435356D02*
X14785356Y-11364644D01*
X14714644Y-11364644D01*
X14714644Y-11435356D01*
X14785356Y-11435356D01*
X14785356Y-11689356D02*
X14785356Y-11618644D01*
X14714644Y-11618644D01*
X14714644Y-11689356D01*
X14785356Y-11689356D01*
X14785356Y-11943356D02*
X14785356Y-11872644D01*
X14714644Y-11872644D01*
X14714644Y-11943356D01*
X14785356Y-11943356D01*
X16185356Y-9277356D02*
X16185356Y-9206644D01*
X16114644Y-9206644D01*
X16114644Y-9277356D01*
X16185356Y-9277356D01*
X16185356Y-9531356D02*
X16185356Y-9460644D01*
X16114644Y-9460644D01*
X16114644Y-9531356D01*
X16185356Y-9531356D01*
X16185356Y-9785356D02*
X16185356Y-9714644D01*
X16114644Y-9714644D01*
X16114644Y-9785356D01*
X16185356Y-9785356D01*
X16185356Y-10039356D02*
X16185356Y-9968644D01*
X16114644Y-9968644D01*
X16114644Y-10039356D01*
X16185356Y-10039356D01*
X16185356Y-10785356D02*
X16185356Y-10714644D01*
X16114644Y-10714644D01*
X16114644Y-10785356D01*
X16185356Y-10785356D01*
X16185356Y-11039356D02*
X16185356Y-10968644D01*
X16114644Y-10968644D01*
X16114644Y-11039356D01*
X16185356Y-11039356D01*
X16185356Y-11293356D02*
X16185356Y-11222644D01*
X16114644Y-11222644D01*
X16114644Y-11293356D01*
X16185356Y-11293356D01*
X16185356Y-11547356D02*
X16185356Y-11476644D01*
X16114644Y-11476644D01*
X16114644Y-11547356D01*
X16185356Y-11547356D01*
X16185356Y-11801356D02*
X16185356Y-11730644D01*
X16114644Y-11730644D01*
X16114644Y-11801356D01*
X16185356Y-11801356D01*
D11*
X12990777Y-12701484D02*
X12990777Y-12501484D01*
X12990777Y-12501484D02*
X13038396Y-12501484D01*
X13038396Y-12501484D02*
X13066967Y-12511008D01*
X13066967Y-12511008D02*
X13086015Y-12530055D01*
X13086015Y-12530055D02*
X13095539Y-12549103D01*
X13095539Y-12549103D02*
X13105062Y-12587198D01*
X13105062Y-12587198D02*
X13105062Y-12615769D01*
X13105062Y-12615769D02*
X13095539Y-12653865D01*
X13095539Y-12653865D02*
X13086015Y-12672912D01*
X13086015Y-12672912D02*
X13066967Y-12691960D01*
X13066967Y-12691960D02*
X13038396Y-12701484D01*
X13038396Y-12701484D02*
X12990777Y-12701484D01*
X13190777Y-12701484D02*
X13190777Y-12568150D01*
X13190777Y-12606246D02*
X13200301Y-12587198D01*
X13200301Y-12587198D02*
X13209824Y-12577674D01*
X13209824Y-12577674D02*
X13228872Y-12568150D01*
X13228872Y-12568150D02*
X13247920Y-12568150D01*
X13314586Y-12701484D02*
X13314586Y-12568150D01*
X13314586Y-12501484D02*
X13305062Y-12511008D01*
X13305062Y-12511008D02*
X13314586Y-12520531D01*
X13314586Y-12520531D02*
X13324110Y-12511008D01*
X13324110Y-12511008D02*
X13314586Y-12501484D01*
X13314586Y-12501484D02*
X13314586Y-12520531D01*
X13438396Y-12701484D02*
X13419348Y-12691960D01*
X13419348Y-12691960D02*
X13409824Y-12672912D01*
X13409824Y-12672912D02*
X13409824Y-12501484D01*
X13543158Y-12701484D02*
X13524110Y-12691960D01*
X13524110Y-12691960D02*
X13514586Y-12672912D01*
X13514586Y-12672912D02*
X13514586Y-12501484D01*
X13771729Y-12701484D02*
X13771729Y-12501484D01*
X13771729Y-12501484D02*
X13838396Y-12644341D01*
X13838396Y-12644341D02*
X13905062Y-12501484D01*
X13905062Y-12501484D02*
X13905062Y-12701484D01*
X14086015Y-12701484D02*
X14086015Y-12596722D01*
X14086015Y-12596722D02*
X14076491Y-12577674D01*
X14076491Y-12577674D02*
X14057443Y-12568150D01*
X14057443Y-12568150D02*
X14019348Y-12568150D01*
X14019348Y-12568150D02*
X14000301Y-12577674D01*
X14086015Y-12691960D02*
X14066967Y-12701484D01*
X14066967Y-12701484D02*
X14019348Y-12701484D01*
X14019348Y-12701484D02*
X14000301Y-12691960D01*
X14000301Y-12691960D02*
X13990777Y-12672912D01*
X13990777Y-12672912D02*
X13990777Y-12653865D01*
X13990777Y-12653865D02*
X14000301Y-12634817D01*
X14000301Y-12634817D02*
X14019348Y-12625293D01*
X14019348Y-12625293D02*
X14066967Y-12625293D01*
X14066967Y-12625293D02*
X14086015Y-12615769D01*
X14181253Y-12568150D02*
X14181253Y-12768150D01*
X14181253Y-12577674D02*
X14200301Y-12568150D01*
X14200301Y-12568150D02*
X14238396Y-12568150D01*
X14238396Y-12568150D02*
X14257443Y-12577674D01*
X14257443Y-12577674D02*
X14266967Y-12587198D01*
X14266967Y-12587198D02*
X14276491Y-12606246D01*
X14276491Y-12606246D02*
X14276491Y-12663388D01*
X14276491Y-12663388D02*
X14266967Y-12682436D01*
X14266967Y-12682436D02*
X14257443Y-12691960D01*
X14257443Y-12691960D02*
X14238396Y-12701484D01*
X14238396Y-12701484D02*
X14200301Y-12701484D01*
X14200301Y-12701484D02*
X14181253Y-12691960D01*
X14362205Y-12682436D02*
X14371729Y-12691960D01*
X14371729Y-12691960D02*
X14362205Y-12701484D01*
X14362205Y-12701484D02*
X14352682Y-12691960D01*
X14352682Y-12691960D02*
X14362205Y-12682436D01*
X14362205Y-12682436D02*
X14362205Y-12701484D01*
X14362205Y-12577674D02*
X14371729Y-12587198D01*
X14371729Y-12587198D02*
X14362205Y-12596722D01*
X14362205Y-12596722D02*
X14352682Y-12587198D01*
X14352682Y-12587198D02*
X14362205Y-12577674D01*
X14362205Y-12577674D02*
X14362205Y-12596722D01*
D12*
X12700000Y-13015000D02*
X12730000Y-13045000D01*
X12730000Y-13015000D02*
X12700000Y-13045000D01*
D11*
X13028872Y-12921484D02*
X13047920Y-12921484D01*
X13047920Y-12921484D02*
X13066967Y-12931008D01*
X13066967Y-12931008D02*
X13076491Y-12940531D01*
X13076491Y-12940531D02*
X13086015Y-12959579D01*
X13086015Y-12959579D02*
X13095539Y-12997674D01*
X13095539Y-12997674D02*
X13095539Y-13045293D01*
X13095539Y-13045293D02*
X13086015Y-13083388D01*
X13086015Y-13083388D02*
X13076491Y-13102436D01*
X13076491Y-13102436D02*
X13066967Y-13111960D01*
X13066967Y-13111960D02*
X13047920Y-13121484D01*
X13047920Y-13121484D02*
X13028872Y-13121484D01*
X13028872Y-13121484D02*
X13009824Y-13111960D01*
X13009824Y-13111960D02*
X13000301Y-13102436D01*
X13000301Y-13102436D02*
X12990777Y-13083388D01*
X12990777Y-13083388D02*
X12981253Y-13045293D01*
X12981253Y-13045293D02*
X12981253Y-12997674D01*
X12981253Y-12997674D02*
X12990777Y-12959579D01*
X12990777Y-12959579D02*
X13000301Y-12940531D01*
X13000301Y-12940531D02*
X13009824Y-12931008D01*
X13009824Y-12931008D02*
X13028872Y-12921484D01*
X13181253Y-13102436D02*
X13190777Y-13111960D01*
X13190777Y-13111960D02*
X13181253Y-13121484D01*
X13181253Y-13121484D02*
X13171729Y-13111960D01*
X13171729Y-13111960D02*
X13181253Y-13102436D01*
X13181253Y-13102436D02*
X13181253Y-13121484D01*
X13257443Y-12921484D02*
X13381253Y-12921484D01*
X13381253Y-12921484D02*
X13314586Y-12997674D01*
X13314586Y-12997674D02*
X13343158Y-12997674D01*
X13343158Y-12997674D02*
X13362205Y-13007198D01*
X13362205Y-13007198D02*
X13371729Y-13016722D01*
X13371729Y-13016722D02*
X13381253Y-13035769D01*
X13381253Y-13035769D02*
X13381253Y-13083388D01*
X13381253Y-13083388D02*
X13371729Y-13102436D01*
X13371729Y-13102436D02*
X13362205Y-13111960D01*
X13362205Y-13111960D02*
X13343158Y-13121484D01*
X13343158Y-13121484D02*
X13286015Y-13121484D01*
X13286015Y-13121484D02*
X13266967Y-13111960D01*
X13266967Y-13111960D02*
X13257443Y-13102436D01*
X13505062Y-12921484D02*
X13524110Y-12921484D01*
X13524110Y-12921484D02*
X13543158Y-12931008D01*
X13543158Y-12931008D02*
X13552682Y-12940531D01*
X13552682Y-12940531D02*
X13562205Y-12959579D01*
X13562205Y-12959579D02*
X13571729Y-12997674D01*
X13571729Y-12997674D02*
X13571729Y-13045293D01*
X13571729Y-13045293D02*
X13562205Y-13083388D01*
X13562205Y-13083388D02*
X13552682Y-13102436D01*
X13552682Y-13102436D02*
X13543158Y-13111960D01*
X13543158Y-13111960D02*
X13524110Y-13121484D01*
X13524110Y-13121484D02*
X13505062Y-13121484D01*
X13505062Y-13121484D02*
X13486015Y-13111960D01*
X13486015Y-13111960D02*
X13476491Y-13102436D01*
X13476491Y-13102436D02*
X13466967Y-13083388D01*
X13466967Y-13083388D02*
X13457443Y-13045293D01*
X13457443Y-13045293D02*
X13457443Y-12997674D01*
X13457443Y-12997674D02*
X13466967Y-12959579D01*
X13466967Y-12959579D02*
X13476491Y-12940531D01*
X13476491Y-12940531D02*
X13486015Y-12931008D01*
X13486015Y-12931008D02*
X13505062Y-12921484D01*
X13695539Y-12921484D02*
X13714586Y-12921484D01*
X13714586Y-12921484D02*
X13733634Y-12931008D01*
X13733634Y-12931008D02*
X13743158Y-12940531D01*
X13743158Y-12940531D02*
X13752682Y-12959579D01*
X13752682Y-12959579D02*
X13762205Y-12997674D01*
X13762205Y-12997674D02*
X13762205Y-13045293D01*
X13762205Y-13045293D02*
X13752682Y-13083388D01*
X13752682Y-13083388D02*
X13743158Y-13102436D01*
X13743158Y-13102436D02*
X13733634Y-13111960D01*
X13733634Y-13111960D02*
X13714586Y-13121484D01*
X13714586Y-13121484D02*
X13695539Y-13121484D01*
X13695539Y-13121484D02*
X13676491Y-13111960D01*
X13676491Y-13111960D02*
X13666967Y-13102436D01*
X13666967Y-13102436D02*
X13657443Y-13083388D01*
X13657443Y-13083388D02*
X13647920Y-13045293D01*
X13647920Y-13045293D02*
X13647920Y-12997674D01*
X13647920Y-12997674D02*
X13657443Y-12959579D01*
X13657443Y-12959579D02*
X13666967Y-12940531D01*
X13666967Y-12940531D02*
X13676491Y-12931008D01*
X13676491Y-12931008D02*
X13695539Y-12921484D01*
X13847920Y-13121484D02*
X13847920Y-12988150D01*
X13847920Y-13007198D02*
X13857443Y-12997674D01*
X13857443Y-12997674D02*
X13876491Y-12988150D01*
X13876491Y-12988150D02*
X13905063Y-12988150D01*
X13905063Y-12988150D02*
X13924110Y-12997674D01*
X13924110Y-12997674D02*
X13933634Y-13016722D01*
X13933634Y-13016722D02*
X13933634Y-13121484D01*
X13933634Y-13016722D02*
X13943158Y-12997674D01*
X13943158Y-12997674D02*
X13962205Y-12988150D01*
X13962205Y-12988150D02*
X13990777Y-12988150D01*
X13990777Y-12988150D02*
X14009824Y-12997674D01*
X14009824Y-12997674D02*
X14019348Y-13016722D01*
X14019348Y-13016722D02*
X14019348Y-13121484D01*
X14114586Y-13121484D02*
X14114586Y-12988150D01*
X14114586Y-13007198D02*
X14124110Y-12997674D01*
X14124110Y-12997674D02*
X14143158Y-12988150D01*
X14143158Y-12988150D02*
X14171729Y-12988150D01*
X14171729Y-12988150D02*
X14190777Y-12997674D01*
X14190777Y-12997674D02*
X14200301Y-13016722D01*
X14200301Y-13016722D02*
X14200301Y-13121484D01*
X14200301Y-13016722D02*
X14209824Y-12997674D01*
X14209824Y-12997674D02*
X14228872Y-12988150D01*
X14228872Y-12988150D02*
X14257443Y-12988150D01*
X14257443Y-12988150D02*
X14276491Y-12997674D01*
X14276491Y-12997674D02*
X14286015Y-13016722D01*
X14286015Y-13016722D02*
X14286015Y-13121484D01*
X14676491Y-12911960D02*
X14505063Y-13169103D01*
X14933634Y-12921484D02*
X14952682Y-12921484D01*
X14952682Y-12921484D02*
X14971729Y-12931008D01*
X14971729Y-12931008D02*
X14981253Y-12940531D01*
X14981253Y-12940531D02*
X14990777Y-12959579D01*
X14990777Y-12959579D02*
X15000301Y-12997674D01*
X15000301Y-12997674D02*
X15000301Y-13045293D01*
X15000301Y-13045293D02*
X14990777Y-13083388D01*
X14990777Y-13083388D02*
X14981253Y-13102436D01*
X14981253Y-13102436D02*
X14971729Y-13111960D01*
X14971729Y-13111960D02*
X14952682Y-13121484D01*
X14952682Y-13121484D02*
X14933634Y-13121484D01*
X14933634Y-13121484D02*
X14914586Y-13111960D01*
X14914586Y-13111960D02*
X14905063Y-13102436D01*
X14905063Y-13102436D02*
X14895539Y-13083388D01*
X14895539Y-13083388D02*
X14886015Y-13045293D01*
X14886015Y-13045293D02*
X14886015Y-12997674D01*
X14886015Y-12997674D02*
X14895539Y-12959579D01*
X14895539Y-12959579D02*
X14905063Y-12940531D01*
X14905063Y-12940531D02*
X14914586Y-12931008D01*
X14914586Y-12931008D02*
X14933634Y-12921484D01*
X15086015Y-13102436D02*
X15095539Y-13111960D01*
X15095539Y-13111960D02*
X15086015Y-13121484D01*
X15086015Y-13121484D02*
X15076491Y-13111960D01*
X15076491Y-13111960D02*
X15086015Y-13102436D01*
X15086015Y-13102436D02*
X15086015Y-13121484D01*
X15219348Y-12921484D02*
X15238396Y-12921484D01*
X15238396Y-12921484D02*
X15257444Y-12931008D01*
X15257444Y-12931008D02*
X15266967Y-12940531D01*
X15266967Y-12940531D02*
X15276491Y-12959579D01*
X15276491Y-12959579D02*
X15286015Y-12997674D01*
X15286015Y-12997674D02*
X15286015Y-13045293D01*
X15286015Y-13045293D02*
X15276491Y-13083388D01*
X15276491Y-13083388D02*
X15266967Y-13102436D01*
X15266967Y-13102436D02*
X15257444Y-13111960D01*
X15257444Y-13111960D02*
X15238396Y-13121484D01*
X15238396Y-13121484D02*
X15219348Y-13121484D01*
X15219348Y-13121484D02*
X15200301Y-13111960D01*
X15200301Y-13111960D02*
X15190777Y-13102436D01*
X15190777Y-13102436D02*
X15181253Y-13083388D01*
X15181253Y-13083388D02*
X15171729Y-13045293D01*
X15171729Y-13045293D02*
X15171729Y-12997674D01*
X15171729Y-12997674D02*
X15181253Y-12959579D01*
X15181253Y-12959579D02*
X15190777Y-12940531D01*
X15190777Y-12940531D02*
X15200301Y-12931008D01*
X15200301Y-12931008D02*
X15219348Y-12921484D01*
X15476491Y-13121484D02*
X15362206Y-13121484D01*
X15419348Y-13121484D02*
X15419348Y-12921484D01*
X15419348Y-12921484D02*
X15400301Y-12950055D01*
X15400301Y-12950055D02*
X15381253Y-12969103D01*
X15381253Y-12969103D02*
X15362206Y-12978627D01*
X15666967Y-13121484D02*
X15552682Y-13121484D01*
X15609825Y-13121484D02*
X15609825Y-12921484D01*
X15609825Y-12921484D02*
X15590777Y-12950055D01*
X15590777Y-12950055D02*
X15571729Y-12969103D01*
X15571729Y-12969103D02*
X15552682Y-12978627D01*
X15781253Y-13007198D02*
X15762206Y-12997674D01*
X15762206Y-12997674D02*
X15752682Y-12988150D01*
X15752682Y-12988150D02*
X15743158Y-12969103D01*
X15743158Y-12969103D02*
X15743158Y-12959579D01*
X15743158Y-12959579D02*
X15752682Y-12940531D01*
X15752682Y-12940531D02*
X15762206Y-12931008D01*
X15762206Y-12931008D02*
X15781253Y-12921484D01*
X15781253Y-12921484D02*
X15819348Y-12921484D01*
X15819348Y-12921484D02*
X15838396Y-12931008D01*
X15838396Y-12931008D02*
X15847920Y-12940531D01*
X15847920Y-12940531D02*
X15857444Y-12959579D01*
X15857444Y-12959579D02*
X15857444Y-12969103D01*
X15857444Y-12969103D02*
X15847920Y-12988150D01*
X15847920Y-12988150D02*
X15838396Y-12997674D01*
X15838396Y-12997674D02*
X15819348Y-13007198D01*
X15819348Y-13007198D02*
X15781253Y-13007198D01*
X15781253Y-13007198D02*
X15762206Y-13016722D01*
X15762206Y-13016722D02*
X15752682Y-13026246D01*
X15752682Y-13026246D02*
X15743158Y-13045293D01*
X15743158Y-13045293D02*
X15743158Y-13083388D01*
X15743158Y-13083388D02*
X15752682Y-13102436D01*
X15752682Y-13102436D02*
X15762206Y-13111960D01*
X15762206Y-13111960D02*
X15781253Y-13121484D01*
X15781253Y-13121484D02*
X15819348Y-13121484D01*
X15819348Y-13121484D02*
X15838396Y-13111960D01*
X15838396Y-13111960D02*
X15847920Y-13102436D01*
X15847920Y-13102436D02*
X15857444Y-13083388D01*
X15857444Y-13083388D02*
X15857444Y-13045293D01*
X15857444Y-13045293D02*
X15847920Y-13026246D01*
X15847920Y-13026246D02*
X15838396Y-13016722D01*
X15838396Y-13016722D02*
X15819348Y-13007198D01*
X15933634Y-12921484D02*
X15933634Y-12959579D01*
X16009825Y-12921484D02*
X16009825Y-12959579D01*
X16305063Y-13197674D02*
X16295539Y-13188150D01*
X16295539Y-13188150D02*
X16276491Y-13159579D01*
X16276491Y-13159579D02*
X16266968Y-13140531D01*
X16266968Y-13140531D02*
X16257444Y-13111960D01*
X16257444Y-13111960D02*
X16247920Y-13064341D01*
X16247920Y-13064341D02*
X16247920Y-13026246D01*
X16247920Y-13026246D02*
X16257444Y-12978627D01*
X16257444Y-12978627D02*
X16266968Y-12950055D01*
X16266968Y-12950055D02*
X16276491Y-12931008D01*
X16276491Y-12931008D02*
X16295539Y-12902436D01*
X16295539Y-12902436D02*
X16305063Y-12892912D01*
X16362206Y-12921484D02*
X16486015Y-12921484D01*
X16486015Y-12921484D02*
X16419348Y-12997674D01*
X16419348Y-12997674D02*
X16447920Y-12997674D01*
X16447920Y-12997674D02*
X16466968Y-13007198D01*
X16466968Y-13007198D02*
X16476491Y-13016722D01*
X16476491Y-13016722D02*
X16486015Y-13035769D01*
X16486015Y-13035769D02*
X16486015Y-13083388D01*
X16486015Y-13083388D02*
X16476491Y-13102436D01*
X16476491Y-13102436D02*
X16466968Y-13111960D01*
X16466968Y-13111960D02*
X16447920Y-13121484D01*
X16447920Y-13121484D02*
X16390777Y-13121484D01*
X16390777Y-13121484D02*
X16371729Y-13111960D01*
X16371729Y-13111960D02*
X16362206Y-13102436D01*
X16724110Y-13121484D02*
X16724110Y-12921484D01*
X16809825Y-13121484D02*
X16809825Y-13016722D01*
X16809825Y-13016722D02*
X16800301Y-12997674D01*
X16800301Y-12997674D02*
X16781253Y-12988150D01*
X16781253Y-12988150D02*
X16752682Y-12988150D01*
X16752682Y-12988150D02*
X16733634Y-12997674D01*
X16733634Y-12997674D02*
X16724110Y-13007198D01*
X16933634Y-13121484D02*
X16914587Y-13111960D01*
X16914587Y-13111960D02*
X16905063Y-13102436D01*
X16905063Y-13102436D02*
X16895539Y-13083388D01*
X16895539Y-13083388D02*
X16895539Y-13026246D01*
X16895539Y-13026246D02*
X16905063Y-13007198D01*
X16905063Y-13007198D02*
X16914587Y-12997674D01*
X16914587Y-12997674D02*
X16933634Y-12988150D01*
X16933634Y-12988150D02*
X16962206Y-12988150D01*
X16962206Y-12988150D02*
X16981253Y-12997674D01*
X16981253Y-12997674D02*
X16990777Y-13007198D01*
X16990777Y-13007198D02*
X17000301Y-13026246D01*
X17000301Y-13026246D02*
X17000301Y-13083388D01*
X17000301Y-13083388D02*
X16990777Y-13102436D01*
X16990777Y-13102436D02*
X16981253Y-13111960D01*
X16981253Y-13111960D02*
X16962206Y-13121484D01*
X16962206Y-13121484D02*
X16933634Y-13121484D01*
X17114587Y-13121484D02*
X17095539Y-13111960D01*
X17095539Y-13111960D02*
X17086015Y-13092912D01*
X17086015Y-13092912D02*
X17086015Y-12921484D01*
X17266968Y-13111960D02*
X17247920Y-13121484D01*
X17247920Y-13121484D02*
X17209825Y-13121484D01*
X17209825Y-13121484D02*
X17190777Y-13111960D01*
X17190777Y-13111960D02*
X17181253Y-13092912D01*
X17181253Y-13092912D02*
X17181253Y-13016722D01*
X17181253Y-13016722D02*
X17190777Y-12997674D01*
X17190777Y-12997674D02*
X17209825Y-12988150D01*
X17209825Y-12988150D02*
X17247920Y-12988150D01*
X17247920Y-12988150D02*
X17266968Y-12997674D01*
X17266968Y-12997674D02*
X17276492Y-13016722D01*
X17276492Y-13016722D02*
X17276492Y-13035769D01*
X17276492Y-13035769D02*
X17181253Y-13054817D01*
X17352682Y-13111960D02*
X17371730Y-13121484D01*
X17371730Y-13121484D02*
X17409825Y-13121484D01*
X17409825Y-13121484D02*
X17428873Y-13111960D01*
X17428873Y-13111960D02*
X17438396Y-13092912D01*
X17438396Y-13092912D02*
X17438396Y-13083388D01*
X17438396Y-13083388D02*
X17428873Y-13064341D01*
X17428873Y-13064341D02*
X17409825Y-13054817D01*
X17409825Y-13054817D02*
X17381253Y-13054817D01*
X17381253Y-13054817D02*
X17362206Y-13045293D01*
X17362206Y-13045293D02*
X17352682Y-13026246D01*
X17352682Y-13026246D02*
X17352682Y-13016722D01*
X17352682Y-13016722D02*
X17362206Y-12997674D01*
X17362206Y-12997674D02*
X17381253Y-12988150D01*
X17381253Y-12988150D02*
X17409825Y-12988150D01*
X17409825Y-12988150D02*
X17428873Y-12997674D01*
X17505063Y-13197674D02*
X17514587Y-13188150D01*
X17514587Y-13188150D02*
X17533634Y-13159579D01*
X17533634Y-13159579D02*
X17543158Y-13140531D01*
X17543158Y-13140531D02*
X17552682Y-13111960D01*
X17552682Y-13111960D02*
X17562206Y-13064341D01*
X17562206Y-13064341D02*
X17562206Y-13026246D01*
X17562206Y-13026246D02*
X17552682Y-12978627D01*
X17552682Y-12978627D02*
X17543158Y-12950055D01*
X17543158Y-12950055D02*
X17533634Y-12931008D01*
X17533634Y-12931008D02*
X17514587Y-12902436D01*
X17514587Y-12902436D02*
X17505063Y-12892912D01*
D12*
X12730000Y-13294000D02*
G75*
G02*
X12680000Y-13294000I-25000J0D01*
G01*
X12680000Y-13294000D02*
G75*
G02*
X12730000Y-13294000I25000J0D01*
G01*
D11*
X13028872Y-13185484D02*
X13047920Y-13185484D01*
X13047920Y-13185484D02*
X13066967Y-13195008D01*
X13066967Y-13195008D02*
X13076491Y-13204531D01*
X13076491Y-13204531D02*
X13086015Y-13223579D01*
X13086015Y-13223579D02*
X13095539Y-13261674D01*
X13095539Y-13261674D02*
X13095539Y-13309293D01*
X13095539Y-13309293D02*
X13086015Y-13347388D01*
X13086015Y-13347388D02*
X13076491Y-13366436D01*
X13076491Y-13366436D02*
X13066967Y-13375960D01*
X13066967Y-13375960D02*
X13047920Y-13385484D01*
X13047920Y-13385484D02*
X13028872Y-13385484D01*
X13028872Y-13385484D02*
X13009824Y-13375960D01*
X13009824Y-13375960D02*
X13000301Y-13366436D01*
X13000301Y-13366436D02*
X12990777Y-13347388D01*
X12990777Y-13347388D02*
X12981253Y-13309293D01*
X12981253Y-13309293D02*
X12981253Y-13261674D01*
X12981253Y-13261674D02*
X12990777Y-13223579D01*
X12990777Y-13223579D02*
X13000301Y-13204531D01*
X13000301Y-13204531D02*
X13009824Y-13195008D01*
X13009824Y-13195008D02*
X13028872Y-13185484D01*
X13181253Y-13366436D02*
X13190777Y-13375960D01*
X13190777Y-13375960D02*
X13181253Y-13385484D01*
X13181253Y-13385484D02*
X13171729Y-13375960D01*
X13171729Y-13375960D02*
X13181253Y-13366436D01*
X13181253Y-13366436D02*
X13181253Y-13385484D01*
X13371729Y-13185484D02*
X13276491Y-13185484D01*
X13276491Y-13185484D02*
X13266967Y-13280722D01*
X13266967Y-13280722D02*
X13276491Y-13271198D01*
X13276491Y-13271198D02*
X13295539Y-13261674D01*
X13295539Y-13261674D02*
X13343158Y-13261674D01*
X13343158Y-13261674D02*
X13362205Y-13271198D01*
X13362205Y-13271198D02*
X13371729Y-13280722D01*
X13371729Y-13280722D02*
X13381253Y-13299769D01*
X13381253Y-13299769D02*
X13381253Y-13347388D01*
X13381253Y-13347388D02*
X13371729Y-13366436D01*
X13371729Y-13366436D02*
X13362205Y-13375960D01*
X13362205Y-13375960D02*
X13343158Y-13385484D01*
X13343158Y-13385484D02*
X13295539Y-13385484D01*
X13295539Y-13385484D02*
X13276491Y-13375960D01*
X13276491Y-13375960D02*
X13266967Y-13366436D01*
X13505062Y-13185484D02*
X13524110Y-13185484D01*
X13524110Y-13185484D02*
X13543158Y-13195008D01*
X13543158Y-13195008D02*
X13552682Y-13204531D01*
X13552682Y-13204531D02*
X13562205Y-13223579D01*
X13562205Y-13223579D02*
X13571729Y-13261674D01*
X13571729Y-13261674D02*
X13571729Y-13309293D01*
X13571729Y-13309293D02*
X13562205Y-13347388D01*
X13562205Y-13347388D02*
X13552682Y-13366436D01*
X13552682Y-13366436D02*
X13543158Y-13375960D01*
X13543158Y-13375960D02*
X13524110Y-13385484D01*
X13524110Y-13385484D02*
X13505062Y-13385484D01*
X13505062Y-13385484D02*
X13486015Y-13375960D01*
X13486015Y-13375960D02*
X13476491Y-13366436D01*
X13476491Y-13366436D02*
X13466967Y-13347388D01*
X13466967Y-13347388D02*
X13457443Y-13309293D01*
X13457443Y-13309293D02*
X13457443Y-13261674D01*
X13457443Y-13261674D02*
X13466967Y-13223579D01*
X13466967Y-13223579D02*
X13476491Y-13204531D01*
X13476491Y-13204531D02*
X13486015Y-13195008D01*
X13486015Y-13195008D02*
X13505062Y-13185484D01*
X13695539Y-13185484D02*
X13714586Y-13185484D01*
X13714586Y-13185484D02*
X13733634Y-13195008D01*
X13733634Y-13195008D02*
X13743158Y-13204531D01*
X13743158Y-13204531D02*
X13752682Y-13223579D01*
X13752682Y-13223579D02*
X13762205Y-13261674D01*
X13762205Y-13261674D02*
X13762205Y-13309293D01*
X13762205Y-13309293D02*
X13752682Y-13347388D01*
X13752682Y-13347388D02*
X13743158Y-13366436D01*
X13743158Y-13366436D02*
X13733634Y-13375960D01*
X13733634Y-13375960D02*
X13714586Y-13385484D01*
X13714586Y-13385484D02*
X13695539Y-13385484D01*
X13695539Y-13385484D02*
X13676491Y-13375960D01*
X13676491Y-13375960D02*
X13666967Y-13366436D01*
X13666967Y-13366436D02*
X13657443Y-13347388D01*
X13657443Y-13347388D02*
X13647920Y-13309293D01*
X13647920Y-13309293D02*
X13647920Y-13261674D01*
X13647920Y-13261674D02*
X13657443Y-13223579D01*
X13657443Y-13223579D02*
X13666967Y-13204531D01*
X13666967Y-13204531D02*
X13676491Y-13195008D01*
X13676491Y-13195008D02*
X13695539Y-13185484D01*
X13847920Y-13385484D02*
X13847920Y-13252150D01*
X13847920Y-13271198D02*
X13857443Y-13261674D01*
X13857443Y-13261674D02*
X13876491Y-13252150D01*
X13876491Y-13252150D02*
X13905063Y-13252150D01*
X13905063Y-13252150D02*
X13924110Y-13261674D01*
X13924110Y-13261674D02*
X13933634Y-13280722D01*
X13933634Y-13280722D02*
X13933634Y-13385484D01*
X13933634Y-13280722D02*
X13943158Y-13261674D01*
X13943158Y-13261674D02*
X13962205Y-13252150D01*
X13962205Y-13252150D02*
X13990777Y-13252150D01*
X13990777Y-13252150D02*
X14009824Y-13261674D01*
X14009824Y-13261674D02*
X14019348Y-13280722D01*
X14019348Y-13280722D02*
X14019348Y-13385484D01*
X14114586Y-13385484D02*
X14114586Y-13252150D01*
X14114586Y-13271198D02*
X14124110Y-13261674D01*
X14124110Y-13261674D02*
X14143158Y-13252150D01*
X14143158Y-13252150D02*
X14171729Y-13252150D01*
X14171729Y-13252150D02*
X14190777Y-13261674D01*
X14190777Y-13261674D02*
X14200301Y-13280722D01*
X14200301Y-13280722D02*
X14200301Y-13385484D01*
X14200301Y-13280722D02*
X14209824Y-13261674D01*
X14209824Y-13261674D02*
X14228872Y-13252150D01*
X14228872Y-13252150D02*
X14257443Y-13252150D01*
X14257443Y-13252150D02*
X14276491Y-13261674D01*
X14276491Y-13261674D02*
X14286015Y-13280722D01*
X14286015Y-13280722D02*
X14286015Y-13385484D01*
X14676491Y-13175960D02*
X14505063Y-13433103D01*
X14933634Y-13185484D02*
X14952682Y-13185484D01*
X14952682Y-13185484D02*
X14971729Y-13195008D01*
X14971729Y-13195008D02*
X14981253Y-13204531D01*
X14981253Y-13204531D02*
X14990777Y-13223579D01*
X14990777Y-13223579D02*
X15000301Y-13261674D01*
X15000301Y-13261674D02*
X15000301Y-13309293D01*
X15000301Y-13309293D02*
X14990777Y-13347388D01*
X14990777Y-13347388D02*
X14981253Y-13366436D01*
X14981253Y-13366436D02*
X14971729Y-13375960D01*
X14971729Y-13375960D02*
X14952682Y-13385484D01*
X14952682Y-13385484D02*
X14933634Y-13385484D01*
X14933634Y-13385484D02*
X14914586Y-13375960D01*
X14914586Y-13375960D02*
X14905063Y-13366436D01*
X14905063Y-13366436D02*
X14895539Y-13347388D01*
X14895539Y-13347388D02*
X14886015Y-13309293D01*
X14886015Y-13309293D02*
X14886015Y-13261674D01*
X14886015Y-13261674D02*
X14895539Y-13223579D01*
X14895539Y-13223579D02*
X14905063Y-13204531D01*
X14905063Y-13204531D02*
X14914586Y-13195008D01*
X14914586Y-13195008D02*
X14933634Y-13185484D01*
X15086015Y-13366436D02*
X15095539Y-13375960D01*
X15095539Y-13375960D02*
X15086015Y-13385484D01*
X15086015Y-13385484D02*
X15076491Y-13375960D01*
X15076491Y-13375960D02*
X15086015Y-13366436D01*
X15086015Y-13366436D02*
X15086015Y-13385484D01*
X15219348Y-13185484D02*
X15238396Y-13185484D01*
X15238396Y-13185484D02*
X15257444Y-13195008D01*
X15257444Y-13195008D02*
X15266967Y-13204531D01*
X15266967Y-13204531D02*
X15276491Y-13223579D01*
X15276491Y-13223579D02*
X15286015Y-13261674D01*
X15286015Y-13261674D02*
X15286015Y-13309293D01*
X15286015Y-13309293D02*
X15276491Y-13347388D01*
X15276491Y-13347388D02*
X15266967Y-13366436D01*
X15266967Y-13366436D02*
X15257444Y-13375960D01*
X15257444Y-13375960D02*
X15238396Y-13385484D01*
X15238396Y-13385484D02*
X15219348Y-13385484D01*
X15219348Y-13385484D02*
X15200301Y-13375960D01*
X15200301Y-13375960D02*
X15190777Y-13366436D01*
X15190777Y-13366436D02*
X15181253Y-13347388D01*
X15181253Y-13347388D02*
X15171729Y-13309293D01*
X15171729Y-13309293D02*
X15171729Y-13261674D01*
X15171729Y-13261674D02*
X15181253Y-13223579D01*
X15181253Y-13223579D02*
X15190777Y-13204531D01*
X15190777Y-13204531D02*
X15200301Y-13195008D01*
X15200301Y-13195008D02*
X15219348Y-13185484D01*
X15476491Y-13385484D02*
X15362206Y-13385484D01*
X15419348Y-13385484D02*
X15419348Y-13185484D01*
X15419348Y-13185484D02*
X15400301Y-13214055D01*
X15400301Y-13214055D02*
X15381253Y-13233103D01*
X15381253Y-13233103D02*
X15362206Y-13242627D01*
X15571729Y-13385484D02*
X15609825Y-13385484D01*
X15609825Y-13385484D02*
X15628872Y-13375960D01*
X15628872Y-13375960D02*
X15638396Y-13366436D01*
X15638396Y-13366436D02*
X15657444Y-13337865D01*
X15657444Y-13337865D02*
X15666967Y-13299769D01*
X15666967Y-13299769D02*
X15666967Y-13223579D01*
X15666967Y-13223579D02*
X15657444Y-13204531D01*
X15657444Y-13204531D02*
X15647920Y-13195008D01*
X15647920Y-13195008D02*
X15628872Y-13185484D01*
X15628872Y-13185484D02*
X15590777Y-13185484D01*
X15590777Y-13185484D02*
X15571729Y-13195008D01*
X15571729Y-13195008D02*
X15562206Y-13204531D01*
X15562206Y-13204531D02*
X15552682Y-13223579D01*
X15552682Y-13223579D02*
X15552682Y-13271198D01*
X15552682Y-13271198D02*
X15562206Y-13290246D01*
X15562206Y-13290246D02*
X15571729Y-13299769D01*
X15571729Y-13299769D02*
X15590777Y-13309293D01*
X15590777Y-13309293D02*
X15628872Y-13309293D01*
X15628872Y-13309293D02*
X15647920Y-13299769D01*
X15647920Y-13299769D02*
X15657444Y-13290246D01*
X15657444Y-13290246D02*
X15666967Y-13271198D01*
X15733634Y-13185484D02*
X15866967Y-13185484D01*
X15866967Y-13185484D02*
X15781253Y-13385484D01*
X15933634Y-13185484D02*
X15933634Y-13223579D01*
X16009825Y-13185484D02*
X16009825Y-13223579D01*
X16305063Y-13461674D02*
X16295539Y-13452150D01*
X16295539Y-13452150D02*
X16276491Y-13423579D01*
X16276491Y-13423579D02*
X16266968Y-13404531D01*
X16266968Y-13404531D02*
X16257444Y-13375960D01*
X16257444Y-13375960D02*
X16247920Y-13328341D01*
X16247920Y-13328341D02*
X16247920Y-13290246D01*
X16247920Y-13290246D02*
X16257444Y-13242627D01*
X16257444Y-13242627D02*
X16266968Y-13214055D01*
X16266968Y-13214055D02*
X16276491Y-13195008D01*
X16276491Y-13195008D02*
X16295539Y-13166436D01*
X16295539Y-13166436D02*
X16305063Y-13156912D01*
X16362206Y-13185484D02*
X16495539Y-13185484D01*
X16495539Y-13185484D02*
X16409825Y-13385484D01*
X16724110Y-13385484D02*
X16724110Y-13185484D01*
X16809825Y-13385484D02*
X16809825Y-13280722D01*
X16809825Y-13280722D02*
X16800301Y-13261674D01*
X16800301Y-13261674D02*
X16781253Y-13252150D01*
X16781253Y-13252150D02*
X16752682Y-13252150D01*
X16752682Y-13252150D02*
X16733634Y-13261674D01*
X16733634Y-13261674D02*
X16724110Y-13271198D01*
X16933634Y-13385484D02*
X16914587Y-13375960D01*
X16914587Y-13375960D02*
X16905063Y-13366436D01*
X16905063Y-13366436D02*
X16895539Y-13347388D01*
X16895539Y-13347388D02*
X16895539Y-13290246D01*
X16895539Y-13290246D02*
X16905063Y-13271198D01*
X16905063Y-13271198D02*
X16914587Y-13261674D01*
X16914587Y-13261674D02*
X16933634Y-13252150D01*
X16933634Y-13252150D02*
X16962206Y-13252150D01*
X16962206Y-13252150D02*
X16981253Y-13261674D01*
X16981253Y-13261674D02*
X16990777Y-13271198D01*
X16990777Y-13271198D02*
X17000301Y-13290246D01*
X17000301Y-13290246D02*
X17000301Y-13347388D01*
X17000301Y-13347388D02*
X16990777Y-13366436D01*
X16990777Y-13366436D02*
X16981253Y-13375960D01*
X16981253Y-13375960D02*
X16962206Y-13385484D01*
X16962206Y-13385484D02*
X16933634Y-13385484D01*
X17114587Y-13385484D02*
X17095539Y-13375960D01*
X17095539Y-13375960D02*
X17086015Y-13356912D01*
X17086015Y-13356912D02*
X17086015Y-13185484D01*
X17266968Y-13375960D02*
X17247920Y-13385484D01*
X17247920Y-13385484D02*
X17209825Y-13385484D01*
X17209825Y-13385484D02*
X17190777Y-13375960D01*
X17190777Y-13375960D02*
X17181253Y-13356912D01*
X17181253Y-13356912D02*
X17181253Y-13280722D01*
X17181253Y-13280722D02*
X17190777Y-13261674D01*
X17190777Y-13261674D02*
X17209825Y-13252150D01*
X17209825Y-13252150D02*
X17247920Y-13252150D01*
X17247920Y-13252150D02*
X17266968Y-13261674D01*
X17266968Y-13261674D02*
X17276492Y-13280722D01*
X17276492Y-13280722D02*
X17276492Y-13299769D01*
X17276492Y-13299769D02*
X17181253Y-13318817D01*
X17352682Y-13375960D02*
X17371730Y-13385484D01*
X17371730Y-13385484D02*
X17409825Y-13385484D01*
X17409825Y-13385484D02*
X17428873Y-13375960D01*
X17428873Y-13375960D02*
X17438396Y-13356912D01*
X17438396Y-13356912D02*
X17438396Y-13347388D01*
X17438396Y-13347388D02*
X17428873Y-13328341D01*
X17428873Y-13328341D02*
X17409825Y-13318817D01*
X17409825Y-13318817D02*
X17381253Y-13318817D01*
X17381253Y-13318817D02*
X17362206Y-13309293D01*
X17362206Y-13309293D02*
X17352682Y-13290246D01*
X17352682Y-13290246D02*
X17352682Y-13280722D01*
X17352682Y-13280722D02*
X17362206Y-13261674D01*
X17362206Y-13261674D02*
X17381253Y-13252150D01*
X17381253Y-13252150D02*
X17409825Y-13252150D01*
X17409825Y-13252150D02*
X17428873Y-13261674D01*
X17505063Y-13461674D02*
X17514587Y-13452150D01*
X17514587Y-13452150D02*
X17533634Y-13423579D01*
X17533634Y-13423579D02*
X17543158Y-13404531D01*
X17543158Y-13404531D02*
X17552682Y-13375960D01*
X17552682Y-13375960D02*
X17562206Y-13328341D01*
X17562206Y-13328341D02*
X17562206Y-13290246D01*
X17562206Y-13290246D02*
X17552682Y-13242627D01*
X17552682Y-13242627D02*
X17543158Y-13214055D01*
X17543158Y-13214055D02*
X17533634Y-13195008D01*
X17533634Y-13195008D02*
X17514587Y-13166436D01*
X17514587Y-13166436D02*
X17505063Y-13156912D01*
D12*
X12695000Y-13523000D02*
X12695000Y-13593000D01*
X12660000Y-13558000D02*
X12730000Y-13558000D01*
D11*
X13028872Y-13449484D02*
X13047920Y-13449484D01*
X13047920Y-13449484D02*
X13066967Y-13459008D01*
X13066967Y-13459008D02*
X13076491Y-13468531D01*
X13076491Y-13468531D02*
X13086015Y-13487579D01*
X13086015Y-13487579D02*
X13095539Y-13525674D01*
X13095539Y-13525674D02*
X13095539Y-13573293D01*
X13095539Y-13573293D02*
X13086015Y-13611388D01*
X13086015Y-13611388D02*
X13076491Y-13630436D01*
X13076491Y-13630436D02*
X13066967Y-13639960D01*
X13066967Y-13639960D02*
X13047920Y-13649484D01*
X13047920Y-13649484D02*
X13028872Y-13649484D01*
X13028872Y-13649484D02*
X13009824Y-13639960D01*
X13009824Y-13639960D02*
X13000301Y-13630436D01*
X13000301Y-13630436D02*
X12990777Y-13611388D01*
X12990777Y-13611388D02*
X12981253Y-13573293D01*
X12981253Y-13573293D02*
X12981253Y-13525674D01*
X12981253Y-13525674D02*
X12990777Y-13487579D01*
X12990777Y-13487579D02*
X13000301Y-13468531D01*
X13000301Y-13468531D02*
X13009824Y-13459008D01*
X13009824Y-13459008D02*
X13028872Y-13449484D01*
X13181253Y-13630436D02*
X13190777Y-13639960D01*
X13190777Y-13639960D02*
X13181253Y-13649484D01*
X13181253Y-13649484D02*
X13171729Y-13639960D01*
X13171729Y-13639960D02*
X13181253Y-13630436D01*
X13181253Y-13630436D02*
X13181253Y-13649484D01*
X13257443Y-13449484D02*
X13390777Y-13449484D01*
X13390777Y-13449484D02*
X13305062Y-13649484D01*
X13505062Y-13449484D02*
X13524110Y-13449484D01*
X13524110Y-13449484D02*
X13543158Y-13459008D01*
X13543158Y-13459008D02*
X13552682Y-13468531D01*
X13552682Y-13468531D02*
X13562205Y-13487579D01*
X13562205Y-13487579D02*
X13571729Y-13525674D01*
X13571729Y-13525674D02*
X13571729Y-13573293D01*
X13571729Y-13573293D02*
X13562205Y-13611388D01*
X13562205Y-13611388D02*
X13552682Y-13630436D01*
X13552682Y-13630436D02*
X13543158Y-13639960D01*
X13543158Y-13639960D02*
X13524110Y-13649484D01*
X13524110Y-13649484D02*
X13505062Y-13649484D01*
X13505062Y-13649484D02*
X13486015Y-13639960D01*
X13486015Y-13639960D02*
X13476491Y-13630436D01*
X13476491Y-13630436D02*
X13466967Y-13611388D01*
X13466967Y-13611388D02*
X13457443Y-13573293D01*
X13457443Y-13573293D02*
X13457443Y-13525674D01*
X13457443Y-13525674D02*
X13466967Y-13487579D01*
X13466967Y-13487579D02*
X13476491Y-13468531D01*
X13476491Y-13468531D02*
X13486015Y-13459008D01*
X13486015Y-13459008D02*
X13505062Y-13449484D01*
X13695539Y-13449484D02*
X13714586Y-13449484D01*
X13714586Y-13449484D02*
X13733634Y-13459008D01*
X13733634Y-13459008D02*
X13743158Y-13468531D01*
X13743158Y-13468531D02*
X13752682Y-13487579D01*
X13752682Y-13487579D02*
X13762205Y-13525674D01*
X13762205Y-13525674D02*
X13762205Y-13573293D01*
X13762205Y-13573293D02*
X13752682Y-13611388D01*
X13752682Y-13611388D02*
X13743158Y-13630436D01*
X13743158Y-13630436D02*
X13733634Y-13639960D01*
X13733634Y-13639960D02*
X13714586Y-13649484D01*
X13714586Y-13649484D02*
X13695539Y-13649484D01*
X13695539Y-13649484D02*
X13676491Y-13639960D01*
X13676491Y-13639960D02*
X13666967Y-13630436D01*
X13666967Y-13630436D02*
X13657443Y-13611388D01*
X13657443Y-13611388D02*
X13647920Y-13573293D01*
X13647920Y-13573293D02*
X13647920Y-13525674D01*
X13647920Y-13525674D02*
X13657443Y-13487579D01*
X13657443Y-13487579D02*
X13666967Y-13468531D01*
X13666967Y-13468531D02*
X13676491Y-13459008D01*
X13676491Y-13459008D02*
X13695539Y-13449484D01*
X13847920Y-13649484D02*
X13847920Y-13516150D01*
X13847920Y-13535198D02*
X13857443Y-13525674D01*
X13857443Y-13525674D02*
X13876491Y-13516150D01*
X13876491Y-13516150D02*
X13905063Y-13516150D01*
X13905063Y-13516150D02*
X13924110Y-13525674D01*
X13924110Y-13525674D02*
X13933634Y-13544722D01*
X13933634Y-13544722D02*
X13933634Y-13649484D01*
X13933634Y-13544722D02*
X13943158Y-13525674D01*
X13943158Y-13525674D02*
X13962205Y-13516150D01*
X13962205Y-13516150D02*
X13990777Y-13516150D01*
X13990777Y-13516150D02*
X14009824Y-13525674D01*
X14009824Y-13525674D02*
X14019348Y-13544722D01*
X14019348Y-13544722D02*
X14019348Y-13649484D01*
X14114586Y-13649484D02*
X14114586Y-13516150D01*
X14114586Y-13535198D02*
X14124110Y-13525674D01*
X14124110Y-13525674D02*
X14143158Y-13516150D01*
X14143158Y-13516150D02*
X14171729Y-13516150D01*
X14171729Y-13516150D02*
X14190777Y-13525674D01*
X14190777Y-13525674D02*
X14200301Y-13544722D01*
X14200301Y-13544722D02*
X14200301Y-13649484D01*
X14200301Y-13544722D02*
X14209824Y-13525674D01*
X14209824Y-13525674D02*
X14228872Y-13516150D01*
X14228872Y-13516150D02*
X14257443Y-13516150D01*
X14257443Y-13516150D02*
X14276491Y-13525674D01*
X14276491Y-13525674D02*
X14286015Y-13544722D01*
X14286015Y-13544722D02*
X14286015Y-13649484D01*
X14676491Y-13439960D02*
X14505063Y-13697103D01*
X14933634Y-13449484D02*
X14952682Y-13449484D01*
X14952682Y-13449484D02*
X14971729Y-13459008D01*
X14971729Y-13459008D02*
X14981253Y-13468531D01*
X14981253Y-13468531D02*
X14990777Y-13487579D01*
X14990777Y-13487579D02*
X15000301Y-13525674D01*
X15000301Y-13525674D02*
X15000301Y-13573293D01*
X15000301Y-13573293D02*
X14990777Y-13611388D01*
X14990777Y-13611388D02*
X14981253Y-13630436D01*
X14981253Y-13630436D02*
X14971729Y-13639960D01*
X14971729Y-13639960D02*
X14952682Y-13649484D01*
X14952682Y-13649484D02*
X14933634Y-13649484D01*
X14933634Y-13649484D02*
X14914586Y-13639960D01*
X14914586Y-13639960D02*
X14905063Y-13630436D01*
X14905063Y-13630436D02*
X14895539Y-13611388D01*
X14895539Y-13611388D02*
X14886015Y-13573293D01*
X14886015Y-13573293D02*
X14886015Y-13525674D01*
X14886015Y-13525674D02*
X14895539Y-13487579D01*
X14895539Y-13487579D02*
X14905063Y-13468531D01*
X14905063Y-13468531D02*
X14914586Y-13459008D01*
X14914586Y-13459008D02*
X14933634Y-13449484D01*
X15086015Y-13630436D02*
X15095539Y-13639960D01*
X15095539Y-13639960D02*
X15086015Y-13649484D01*
X15086015Y-13649484D02*
X15076491Y-13639960D01*
X15076491Y-13639960D02*
X15086015Y-13630436D01*
X15086015Y-13630436D02*
X15086015Y-13649484D01*
X15219348Y-13449484D02*
X15238396Y-13449484D01*
X15238396Y-13449484D02*
X15257444Y-13459008D01*
X15257444Y-13459008D02*
X15266967Y-13468531D01*
X15266967Y-13468531D02*
X15276491Y-13487579D01*
X15276491Y-13487579D02*
X15286015Y-13525674D01*
X15286015Y-13525674D02*
X15286015Y-13573293D01*
X15286015Y-13573293D02*
X15276491Y-13611388D01*
X15276491Y-13611388D02*
X15266967Y-13630436D01*
X15266967Y-13630436D02*
X15257444Y-13639960D01*
X15257444Y-13639960D02*
X15238396Y-13649484D01*
X15238396Y-13649484D02*
X15219348Y-13649484D01*
X15219348Y-13649484D02*
X15200301Y-13639960D01*
X15200301Y-13639960D02*
X15190777Y-13630436D01*
X15190777Y-13630436D02*
X15181253Y-13611388D01*
X15181253Y-13611388D02*
X15171729Y-13573293D01*
X15171729Y-13573293D02*
X15171729Y-13525674D01*
X15171729Y-13525674D02*
X15181253Y-13487579D01*
X15181253Y-13487579D02*
X15190777Y-13468531D01*
X15190777Y-13468531D02*
X15200301Y-13459008D01*
X15200301Y-13459008D02*
X15219348Y-13449484D01*
X15362206Y-13468531D02*
X15371729Y-13459008D01*
X15371729Y-13459008D02*
X15390777Y-13449484D01*
X15390777Y-13449484D02*
X15438396Y-13449484D01*
X15438396Y-13449484D02*
X15457444Y-13459008D01*
X15457444Y-13459008D02*
X15466967Y-13468531D01*
X15466967Y-13468531D02*
X15476491Y-13487579D01*
X15476491Y-13487579D02*
X15476491Y-13506627D01*
X15476491Y-13506627D02*
X15466967Y-13535198D01*
X15466967Y-13535198D02*
X15352682Y-13649484D01*
X15352682Y-13649484D02*
X15476491Y-13649484D01*
X15543158Y-13449484D02*
X15676491Y-13449484D01*
X15676491Y-13449484D02*
X15590777Y-13649484D01*
X15838396Y-13449484D02*
X15800301Y-13449484D01*
X15800301Y-13449484D02*
X15781253Y-13459008D01*
X15781253Y-13459008D02*
X15771729Y-13468531D01*
X15771729Y-13468531D02*
X15752682Y-13497103D01*
X15752682Y-13497103D02*
X15743158Y-13535198D01*
X15743158Y-13535198D02*
X15743158Y-13611388D01*
X15743158Y-13611388D02*
X15752682Y-13630436D01*
X15752682Y-13630436D02*
X15762206Y-13639960D01*
X15762206Y-13639960D02*
X15781253Y-13649484D01*
X15781253Y-13649484D02*
X15819348Y-13649484D01*
X15819348Y-13649484D02*
X15838396Y-13639960D01*
X15838396Y-13639960D02*
X15847920Y-13630436D01*
X15847920Y-13630436D02*
X15857444Y-13611388D01*
X15857444Y-13611388D02*
X15857444Y-13563769D01*
X15857444Y-13563769D02*
X15847920Y-13544722D01*
X15847920Y-13544722D02*
X15838396Y-13535198D01*
X15838396Y-13535198D02*
X15819348Y-13525674D01*
X15819348Y-13525674D02*
X15781253Y-13525674D01*
X15781253Y-13525674D02*
X15762206Y-13535198D01*
X15762206Y-13535198D02*
X15752682Y-13544722D01*
X15752682Y-13544722D02*
X15743158Y-13563769D01*
X15933634Y-13449484D02*
X15933634Y-13487579D01*
X16009825Y-13449484D02*
X16009825Y-13487579D01*
X16305063Y-13725674D02*
X16295539Y-13716150D01*
X16295539Y-13716150D02*
X16276491Y-13687579D01*
X16276491Y-13687579D02*
X16266968Y-13668531D01*
X16266968Y-13668531D02*
X16257444Y-13639960D01*
X16257444Y-13639960D02*
X16247920Y-13592341D01*
X16247920Y-13592341D02*
X16247920Y-13554246D01*
X16247920Y-13554246D02*
X16257444Y-13506627D01*
X16257444Y-13506627D02*
X16266968Y-13478055D01*
X16266968Y-13478055D02*
X16276491Y-13459008D01*
X16276491Y-13459008D02*
X16295539Y-13430436D01*
X16295539Y-13430436D02*
X16305063Y-13420912D01*
X16466968Y-13449484D02*
X16428872Y-13449484D01*
X16428872Y-13449484D02*
X16409825Y-13459008D01*
X16409825Y-13459008D02*
X16400301Y-13468531D01*
X16400301Y-13468531D02*
X16381253Y-13497103D01*
X16381253Y-13497103D02*
X16371729Y-13535198D01*
X16371729Y-13535198D02*
X16371729Y-13611388D01*
X16371729Y-13611388D02*
X16381253Y-13630436D01*
X16381253Y-13630436D02*
X16390777Y-13639960D01*
X16390777Y-13639960D02*
X16409825Y-13649484D01*
X16409825Y-13649484D02*
X16447920Y-13649484D01*
X16447920Y-13649484D02*
X16466968Y-13639960D01*
X16466968Y-13639960D02*
X16476491Y-13630436D01*
X16476491Y-13630436D02*
X16486015Y-13611388D01*
X16486015Y-13611388D02*
X16486015Y-13563769D01*
X16486015Y-13563769D02*
X16476491Y-13544722D01*
X16476491Y-13544722D02*
X16466968Y-13535198D01*
X16466968Y-13535198D02*
X16447920Y-13525674D01*
X16447920Y-13525674D02*
X16409825Y-13525674D01*
X16409825Y-13525674D02*
X16390777Y-13535198D01*
X16390777Y-13535198D02*
X16381253Y-13544722D01*
X16381253Y-13544722D02*
X16371729Y-13563769D01*
X16724110Y-13649484D02*
X16724110Y-13449484D01*
X16809825Y-13649484D02*
X16809825Y-13544722D01*
X16809825Y-13544722D02*
X16800301Y-13525674D01*
X16800301Y-13525674D02*
X16781253Y-13516150D01*
X16781253Y-13516150D02*
X16752682Y-13516150D01*
X16752682Y-13516150D02*
X16733634Y-13525674D01*
X16733634Y-13525674D02*
X16724110Y-13535198D01*
X16933634Y-13649484D02*
X16914587Y-13639960D01*
X16914587Y-13639960D02*
X16905063Y-13630436D01*
X16905063Y-13630436D02*
X16895539Y-13611388D01*
X16895539Y-13611388D02*
X16895539Y-13554246D01*
X16895539Y-13554246D02*
X16905063Y-13535198D01*
X16905063Y-13535198D02*
X16914587Y-13525674D01*
X16914587Y-13525674D02*
X16933634Y-13516150D01*
X16933634Y-13516150D02*
X16962206Y-13516150D01*
X16962206Y-13516150D02*
X16981253Y-13525674D01*
X16981253Y-13525674D02*
X16990777Y-13535198D01*
X16990777Y-13535198D02*
X17000301Y-13554246D01*
X17000301Y-13554246D02*
X17000301Y-13611388D01*
X17000301Y-13611388D02*
X16990777Y-13630436D01*
X16990777Y-13630436D02*
X16981253Y-13639960D01*
X16981253Y-13639960D02*
X16962206Y-13649484D01*
X16962206Y-13649484D02*
X16933634Y-13649484D01*
X17114587Y-13649484D02*
X17095539Y-13639960D01*
X17095539Y-13639960D02*
X17086015Y-13620912D01*
X17086015Y-13620912D02*
X17086015Y-13449484D01*
X17266968Y-13639960D02*
X17247920Y-13649484D01*
X17247920Y-13649484D02*
X17209825Y-13649484D01*
X17209825Y-13649484D02*
X17190777Y-13639960D01*
X17190777Y-13639960D02*
X17181253Y-13620912D01*
X17181253Y-13620912D02*
X17181253Y-13544722D01*
X17181253Y-13544722D02*
X17190777Y-13525674D01*
X17190777Y-13525674D02*
X17209825Y-13516150D01*
X17209825Y-13516150D02*
X17247920Y-13516150D01*
X17247920Y-13516150D02*
X17266968Y-13525674D01*
X17266968Y-13525674D02*
X17276492Y-13544722D01*
X17276492Y-13544722D02*
X17276492Y-13563769D01*
X17276492Y-13563769D02*
X17181253Y-13582817D01*
X17352682Y-13639960D02*
X17371730Y-13649484D01*
X17371730Y-13649484D02*
X17409825Y-13649484D01*
X17409825Y-13649484D02*
X17428873Y-13639960D01*
X17428873Y-13639960D02*
X17438396Y-13620912D01*
X17438396Y-13620912D02*
X17438396Y-13611388D01*
X17438396Y-13611388D02*
X17428873Y-13592341D01*
X17428873Y-13592341D02*
X17409825Y-13582817D01*
X17409825Y-13582817D02*
X17381253Y-13582817D01*
X17381253Y-13582817D02*
X17362206Y-13573293D01*
X17362206Y-13573293D02*
X17352682Y-13554246D01*
X17352682Y-13554246D02*
X17352682Y-13544722D01*
X17352682Y-13544722D02*
X17362206Y-13525674D01*
X17362206Y-13525674D02*
X17381253Y-13516150D01*
X17381253Y-13516150D02*
X17409825Y-13516150D01*
X17409825Y-13516150D02*
X17428873Y-13525674D01*
X17505063Y-13725674D02*
X17514587Y-13716150D01*
X17514587Y-13716150D02*
X17533634Y-13687579D01*
X17533634Y-13687579D02*
X17543158Y-13668531D01*
X17543158Y-13668531D02*
X17552682Y-13639960D01*
X17552682Y-13639960D02*
X17562206Y-13592341D01*
X17562206Y-13592341D02*
X17562206Y-13554246D01*
X17562206Y-13554246D02*
X17552682Y-13506627D01*
X17552682Y-13506627D02*
X17543158Y-13478055D01*
X17543158Y-13478055D02*
X17533634Y-13459008D01*
X17533634Y-13459008D02*
X17514587Y-13430436D01*
X17514587Y-13430436D02*
X17505063Y-13420912D01*
D12*
X12715356Y-13857356D02*
X12715356Y-13786644D01*
X12644644Y-13786644D01*
X12644644Y-13857356D01*
X12715356Y-13857356D01*
D11*
X13095539Y-13913484D02*
X12981253Y-13913484D01*
X13038396Y-13913484D02*
X13038396Y-13713484D01*
X13038396Y-13713484D02*
X13019348Y-13742055D01*
X13019348Y-13742055D02*
X13000301Y-13761103D01*
X13000301Y-13761103D02*
X12981253Y-13770627D01*
X13181253Y-13894436D02*
X13190777Y-13903960D01*
X13190777Y-13903960D02*
X13181253Y-13913484D01*
X13181253Y-13913484D02*
X13171729Y-13903960D01*
X13171729Y-13903960D02*
X13181253Y-13894436D01*
X13181253Y-13894436D02*
X13181253Y-13913484D01*
X13314586Y-13713484D02*
X13333634Y-13713484D01*
X13333634Y-13713484D02*
X13352682Y-13723008D01*
X13352682Y-13723008D02*
X13362205Y-13732531D01*
X13362205Y-13732531D02*
X13371729Y-13751579D01*
X13371729Y-13751579D02*
X13381253Y-13789674D01*
X13381253Y-13789674D02*
X13381253Y-13837293D01*
X13381253Y-13837293D02*
X13371729Y-13875388D01*
X13371729Y-13875388D02*
X13362205Y-13894436D01*
X13362205Y-13894436D02*
X13352682Y-13903960D01*
X13352682Y-13903960D02*
X13333634Y-13913484D01*
X13333634Y-13913484D02*
X13314586Y-13913484D01*
X13314586Y-13913484D02*
X13295539Y-13903960D01*
X13295539Y-13903960D02*
X13286015Y-13894436D01*
X13286015Y-13894436D02*
X13276491Y-13875388D01*
X13276491Y-13875388D02*
X13266967Y-13837293D01*
X13266967Y-13837293D02*
X13266967Y-13789674D01*
X13266967Y-13789674D02*
X13276491Y-13751579D01*
X13276491Y-13751579D02*
X13286015Y-13732531D01*
X13286015Y-13732531D02*
X13295539Y-13723008D01*
X13295539Y-13723008D02*
X13314586Y-13713484D01*
X13505062Y-13713484D02*
X13524110Y-13713484D01*
X13524110Y-13713484D02*
X13543158Y-13723008D01*
X13543158Y-13723008D02*
X13552682Y-13732531D01*
X13552682Y-13732531D02*
X13562205Y-13751579D01*
X13562205Y-13751579D02*
X13571729Y-13789674D01*
X13571729Y-13789674D02*
X13571729Y-13837293D01*
X13571729Y-13837293D02*
X13562205Y-13875388D01*
X13562205Y-13875388D02*
X13552682Y-13894436D01*
X13552682Y-13894436D02*
X13543158Y-13903960D01*
X13543158Y-13903960D02*
X13524110Y-13913484D01*
X13524110Y-13913484D02*
X13505062Y-13913484D01*
X13505062Y-13913484D02*
X13486015Y-13903960D01*
X13486015Y-13903960D02*
X13476491Y-13894436D01*
X13476491Y-13894436D02*
X13466967Y-13875388D01*
X13466967Y-13875388D02*
X13457443Y-13837293D01*
X13457443Y-13837293D02*
X13457443Y-13789674D01*
X13457443Y-13789674D02*
X13466967Y-13751579D01*
X13466967Y-13751579D02*
X13476491Y-13732531D01*
X13476491Y-13732531D02*
X13486015Y-13723008D01*
X13486015Y-13723008D02*
X13505062Y-13713484D01*
X13695539Y-13713484D02*
X13714586Y-13713484D01*
X13714586Y-13713484D02*
X13733634Y-13723008D01*
X13733634Y-13723008D02*
X13743158Y-13732531D01*
X13743158Y-13732531D02*
X13752682Y-13751579D01*
X13752682Y-13751579D02*
X13762205Y-13789674D01*
X13762205Y-13789674D02*
X13762205Y-13837293D01*
X13762205Y-13837293D02*
X13752682Y-13875388D01*
X13752682Y-13875388D02*
X13743158Y-13894436D01*
X13743158Y-13894436D02*
X13733634Y-13903960D01*
X13733634Y-13903960D02*
X13714586Y-13913484D01*
X13714586Y-13913484D02*
X13695539Y-13913484D01*
X13695539Y-13913484D02*
X13676491Y-13903960D01*
X13676491Y-13903960D02*
X13666967Y-13894436D01*
X13666967Y-13894436D02*
X13657443Y-13875388D01*
X13657443Y-13875388D02*
X13647920Y-13837293D01*
X13647920Y-13837293D02*
X13647920Y-13789674D01*
X13647920Y-13789674D02*
X13657443Y-13751579D01*
X13657443Y-13751579D02*
X13666967Y-13732531D01*
X13666967Y-13732531D02*
X13676491Y-13723008D01*
X13676491Y-13723008D02*
X13695539Y-13713484D01*
X13847920Y-13913484D02*
X13847920Y-13780150D01*
X13847920Y-13799198D02*
X13857443Y-13789674D01*
X13857443Y-13789674D02*
X13876491Y-13780150D01*
X13876491Y-13780150D02*
X13905063Y-13780150D01*
X13905063Y-13780150D02*
X13924110Y-13789674D01*
X13924110Y-13789674D02*
X13933634Y-13808722D01*
X13933634Y-13808722D02*
X13933634Y-13913484D01*
X13933634Y-13808722D02*
X13943158Y-13789674D01*
X13943158Y-13789674D02*
X13962205Y-13780150D01*
X13962205Y-13780150D02*
X13990777Y-13780150D01*
X13990777Y-13780150D02*
X14009824Y-13789674D01*
X14009824Y-13789674D02*
X14019348Y-13808722D01*
X14019348Y-13808722D02*
X14019348Y-13913484D01*
X14114586Y-13913484D02*
X14114586Y-13780150D01*
X14114586Y-13799198D02*
X14124110Y-13789674D01*
X14124110Y-13789674D02*
X14143158Y-13780150D01*
X14143158Y-13780150D02*
X14171729Y-13780150D01*
X14171729Y-13780150D02*
X14190777Y-13789674D01*
X14190777Y-13789674D02*
X14200301Y-13808722D01*
X14200301Y-13808722D02*
X14200301Y-13913484D01*
X14200301Y-13808722D02*
X14209824Y-13789674D01*
X14209824Y-13789674D02*
X14228872Y-13780150D01*
X14228872Y-13780150D02*
X14257443Y-13780150D01*
X14257443Y-13780150D02*
X14276491Y-13789674D01*
X14276491Y-13789674D02*
X14286015Y-13808722D01*
X14286015Y-13808722D02*
X14286015Y-13913484D01*
X14676491Y-13703960D02*
X14505063Y-13961103D01*
X14933634Y-13713484D02*
X14952682Y-13713484D01*
X14952682Y-13713484D02*
X14971729Y-13723008D01*
X14971729Y-13723008D02*
X14981253Y-13732531D01*
X14981253Y-13732531D02*
X14990777Y-13751579D01*
X14990777Y-13751579D02*
X15000301Y-13789674D01*
X15000301Y-13789674D02*
X15000301Y-13837293D01*
X15000301Y-13837293D02*
X14990777Y-13875388D01*
X14990777Y-13875388D02*
X14981253Y-13894436D01*
X14981253Y-13894436D02*
X14971729Y-13903960D01*
X14971729Y-13903960D02*
X14952682Y-13913484D01*
X14952682Y-13913484D02*
X14933634Y-13913484D01*
X14933634Y-13913484D02*
X14914586Y-13903960D01*
X14914586Y-13903960D02*
X14905063Y-13894436D01*
X14905063Y-13894436D02*
X14895539Y-13875388D01*
X14895539Y-13875388D02*
X14886015Y-13837293D01*
X14886015Y-13837293D02*
X14886015Y-13789674D01*
X14886015Y-13789674D02*
X14895539Y-13751579D01*
X14895539Y-13751579D02*
X14905063Y-13732531D01*
X14905063Y-13732531D02*
X14914586Y-13723008D01*
X14914586Y-13723008D02*
X14933634Y-13713484D01*
X15086015Y-13894436D02*
X15095539Y-13903960D01*
X15095539Y-13903960D02*
X15086015Y-13913484D01*
X15086015Y-13913484D02*
X15076491Y-13903960D01*
X15076491Y-13903960D02*
X15086015Y-13894436D01*
X15086015Y-13894436D02*
X15086015Y-13913484D01*
X15219348Y-13713484D02*
X15238396Y-13713484D01*
X15238396Y-13713484D02*
X15257444Y-13723008D01*
X15257444Y-13723008D02*
X15266967Y-13732531D01*
X15266967Y-13732531D02*
X15276491Y-13751579D01*
X15276491Y-13751579D02*
X15286015Y-13789674D01*
X15286015Y-13789674D02*
X15286015Y-13837293D01*
X15286015Y-13837293D02*
X15276491Y-13875388D01*
X15276491Y-13875388D02*
X15266967Y-13894436D01*
X15266967Y-13894436D02*
X15257444Y-13903960D01*
X15257444Y-13903960D02*
X15238396Y-13913484D01*
X15238396Y-13913484D02*
X15219348Y-13913484D01*
X15219348Y-13913484D02*
X15200301Y-13903960D01*
X15200301Y-13903960D02*
X15190777Y-13894436D01*
X15190777Y-13894436D02*
X15181253Y-13875388D01*
X15181253Y-13875388D02*
X15171729Y-13837293D01*
X15171729Y-13837293D02*
X15171729Y-13789674D01*
X15171729Y-13789674D02*
X15181253Y-13751579D01*
X15181253Y-13751579D02*
X15190777Y-13732531D01*
X15190777Y-13732531D02*
X15200301Y-13723008D01*
X15200301Y-13723008D02*
X15219348Y-13713484D01*
X15352682Y-13713484D02*
X15476491Y-13713484D01*
X15476491Y-13713484D02*
X15409825Y-13789674D01*
X15409825Y-13789674D02*
X15438396Y-13789674D01*
X15438396Y-13789674D02*
X15457444Y-13799198D01*
X15457444Y-13799198D02*
X15466967Y-13808722D01*
X15466967Y-13808722D02*
X15476491Y-13827769D01*
X15476491Y-13827769D02*
X15476491Y-13875388D01*
X15476491Y-13875388D02*
X15466967Y-13894436D01*
X15466967Y-13894436D02*
X15457444Y-13903960D01*
X15457444Y-13903960D02*
X15438396Y-13913484D01*
X15438396Y-13913484D02*
X15381253Y-13913484D01*
X15381253Y-13913484D02*
X15362206Y-13903960D01*
X15362206Y-13903960D02*
X15352682Y-13894436D01*
X15571729Y-13913484D02*
X15609825Y-13913484D01*
X15609825Y-13913484D02*
X15628872Y-13903960D01*
X15628872Y-13903960D02*
X15638396Y-13894436D01*
X15638396Y-13894436D02*
X15657444Y-13865865D01*
X15657444Y-13865865D02*
X15666967Y-13827769D01*
X15666967Y-13827769D02*
X15666967Y-13751579D01*
X15666967Y-13751579D02*
X15657444Y-13732531D01*
X15657444Y-13732531D02*
X15647920Y-13723008D01*
X15647920Y-13723008D02*
X15628872Y-13713484D01*
X15628872Y-13713484D02*
X15590777Y-13713484D01*
X15590777Y-13713484D02*
X15571729Y-13723008D01*
X15571729Y-13723008D02*
X15562206Y-13732531D01*
X15562206Y-13732531D02*
X15552682Y-13751579D01*
X15552682Y-13751579D02*
X15552682Y-13799198D01*
X15552682Y-13799198D02*
X15562206Y-13818246D01*
X15562206Y-13818246D02*
X15571729Y-13827769D01*
X15571729Y-13827769D02*
X15590777Y-13837293D01*
X15590777Y-13837293D02*
X15628872Y-13837293D01*
X15628872Y-13837293D02*
X15647920Y-13827769D01*
X15647920Y-13827769D02*
X15657444Y-13818246D01*
X15657444Y-13818246D02*
X15666967Y-13799198D01*
X15838396Y-13780150D02*
X15838396Y-13913484D01*
X15790777Y-13703960D02*
X15743158Y-13846817D01*
X15743158Y-13846817D02*
X15866967Y-13846817D01*
X15933634Y-13713484D02*
X15933634Y-13751579D01*
X16009825Y-13713484D02*
X16009825Y-13751579D01*
X16305063Y-13989674D02*
X16295539Y-13980150D01*
X16295539Y-13980150D02*
X16276491Y-13951579D01*
X16276491Y-13951579D02*
X16266968Y-13932531D01*
X16266968Y-13932531D02*
X16257444Y-13903960D01*
X16257444Y-13903960D02*
X16247920Y-13856341D01*
X16247920Y-13856341D02*
X16247920Y-13818246D01*
X16247920Y-13818246D02*
X16257444Y-13770627D01*
X16257444Y-13770627D02*
X16266968Y-13742055D01*
X16266968Y-13742055D02*
X16276491Y-13723008D01*
X16276491Y-13723008D02*
X16295539Y-13694436D01*
X16295539Y-13694436D02*
X16305063Y-13684912D01*
X16362206Y-13713484D02*
X16486015Y-13713484D01*
X16486015Y-13713484D02*
X16419348Y-13789674D01*
X16419348Y-13789674D02*
X16447920Y-13789674D01*
X16447920Y-13789674D02*
X16466968Y-13799198D01*
X16466968Y-13799198D02*
X16476491Y-13808722D01*
X16476491Y-13808722D02*
X16486015Y-13827769D01*
X16486015Y-13827769D02*
X16486015Y-13875388D01*
X16486015Y-13875388D02*
X16476491Y-13894436D01*
X16476491Y-13894436D02*
X16466968Y-13903960D01*
X16466968Y-13903960D02*
X16447920Y-13913484D01*
X16447920Y-13913484D02*
X16390777Y-13913484D01*
X16390777Y-13913484D02*
X16371729Y-13903960D01*
X16371729Y-13903960D02*
X16362206Y-13894436D01*
X16562206Y-13732531D02*
X16571729Y-13723008D01*
X16571729Y-13723008D02*
X16590777Y-13713484D01*
X16590777Y-13713484D02*
X16638396Y-13713484D01*
X16638396Y-13713484D02*
X16657444Y-13723008D01*
X16657444Y-13723008D02*
X16666968Y-13732531D01*
X16666968Y-13732531D02*
X16676491Y-13751579D01*
X16676491Y-13751579D02*
X16676491Y-13770627D01*
X16676491Y-13770627D02*
X16666968Y-13799198D01*
X16666968Y-13799198D02*
X16552682Y-13913484D01*
X16552682Y-13913484D02*
X16676491Y-13913484D01*
X16914587Y-13913484D02*
X16914587Y-13713484D01*
X17000301Y-13913484D02*
X17000301Y-13808722D01*
X17000301Y-13808722D02*
X16990777Y-13789674D01*
X16990777Y-13789674D02*
X16971730Y-13780150D01*
X16971730Y-13780150D02*
X16943158Y-13780150D01*
X16943158Y-13780150D02*
X16924111Y-13789674D01*
X16924111Y-13789674D02*
X16914587Y-13799198D01*
X17124111Y-13913484D02*
X17105063Y-13903960D01*
X17105063Y-13903960D02*
X17095539Y-13894436D01*
X17095539Y-13894436D02*
X17086015Y-13875388D01*
X17086015Y-13875388D02*
X17086015Y-13818246D01*
X17086015Y-13818246D02*
X17095539Y-13799198D01*
X17095539Y-13799198D02*
X17105063Y-13789674D01*
X17105063Y-13789674D02*
X17124111Y-13780150D01*
X17124111Y-13780150D02*
X17152682Y-13780150D01*
X17152682Y-13780150D02*
X17171730Y-13789674D01*
X17171730Y-13789674D02*
X17181253Y-13799198D01*
X17181253Y-13799198D02*
X17190777Y-13818246D01*
X17190777Y-13818246D02*
X17190777Y-13875388D01*
X17190777Y-13875388D02*
X17181253Y-13894436D01*
X17181253Y-13894436D02*
X17171730Y-13903960D01*
X17171730Y-13903960D02*
X17152682Y-13913484D01*
X17152682Y-13913484D02*
X17124111Y-13913484D01*
X17305063Y-13913484D02*
X17286015Y-13903960D01*
X17286015Y-13903960D02*
X17276492Y-13884912D01*
X17276492Y-13884912D02*
X17276492Y-13713484D01*
X17457444Y-13903960D02*
X17438396Y-13913484D01*
X17438396Y-13913484D02*
X17400301Y-13913484D01*
X17400301Y-13913484D02*
X17381253Y-13903960D01*
X17381253Y-13903960D02*
X17371730Y-13884912D01*
X17371730Y-13884912D02*
X17371730Y-13808722D01*
X17371730Y-13808722D02*
X17381253Y-13789674D01*
X17381253Y-13789674D02*
X17400301Y-13780150D01*
X17400301Y-13780150D02*
X17438396Y-13780150D01*
X17438396Y-13780150D02*
X17457444Y-13789674D01*
X17457444Y-13789674D02*
X17466968Y-13808722D01*
X17466968Y-13808722D02*
X17466968Y-13827769D01*
X17466968Y-13827769D02*
X17371730Y-13846817D01*
X17543158Y-13903960D02*
X17562206Y-13913484D01*
X17562206Y-13913484D02*
X17600301Y-13913484D01*
X17600301Y-13913484D02*
X17619349Y-13903960D01*
X17619349Y-13903960D02*
X17628873Y-13884912D01*
X17628873Y-13884912D02*
X17628873Y-13875388D01*
X17628873Y-13875388D02*
X17619349Y-13856341D01*
X17619349Y-13856341D02*
X17600301Y-13846817D01*
X17600301Y-13846817D02*
X17571730Y-13846817D01*
X17571730Y-13846817D02*
X17552682Y-13837293D01*
X17552682Y-13837293D02*
X17543158Y-13818246D01*
X17543158Y-13818246D02*
X17543158Y-13808722D01*
X17543158Y-13808722D02*
X17552682Y-13789674D01*
X17552682Y-13789674D02*
X17571730Y-13780150D01*
X17571730Y-13780150D02*
X17600301Y-13780150D01*
X17600301Y-13780150D02*
X17619349Y-13789674D01*
X17695539Y-13989674D02*
X17705063Y-13980150D01*
X17705063Y-13980150D02*
X17724111Y-13951579D01*
X17724111Y-13951579D02*
X17733634Y-13932531D01*
X17733634Y-13932531D02*
X17743158Y-13903960D01*
X17743158Y-13903960D02*
X17752682Y-13856341D01*
X17752682Y-13856341D02*
X17752682Y-13818246D01*
X17752682Y-13818246D02*
X17743158Y-13770627D01*
X17743158Y-13770627D02*
X17733634Y-13742055D01*
X17733634Y-13742055D02*
X17724111Y-13723008D01*
X17724111Y-13723008D02*
X17705063Y-13694436D01*
X17705063Y-13694436D02*
X17695539Y-13684912D01*
M02*
